<?xml version="1.0" encoding="UTF-8"?>
<svg version="1.1" xmlns="http://www.w3.org/2000/svg" width="1000" height="1000">
<path d="M0 0 C330 0 660 0 1000 0 C1000 330 1000 660 1000 1000 C670 1000 340 1000 0 1000 C0 670 0 340 0 0 Z " fill="#FEFEFE" transform="translate(0,0)"/>
<path d="M0 0 C0.99 0 1.98 0 3 0 C3.60652184 4.04131664 4.20972548 8.08312288 4.8125 12.125 C5.0609668 13.78015625 5.0609668 13.78015625 5.31445312 15.46875 C6.50206229 23.44589834 7.61371441 31.4312624 8.69721985 39.4230957 C10.54732791 53.06027948 12.44257853 66.69124897 14.33398438 80.32275391 C14.77862811 83.52774465 15.22261177 86.73282577 15.66601562 89.93798828 C19.60077848 119.62166647 19.60077848 119.62166647 24.50390625 149.15136719 C25.82239842 156.72231533 26.77577413 164.3592972 27.82275391 171.97167969 C29.2926004 182.85861833 29.2926004 182.85861833 31.49378967 193.61485291 C32.08224855 196.38753633 32.46852408 199.15509297 32.84936523 201.96411133 C34.2057275 211.62216477 35.7976748 221.23990641 37.37890625 230.86328125 C37.7103025 232.88512837 38.04167713 234.90697904 38.37303162 236.92883301 C39.43303194 243.39057608 40.49741469 249.85159343 41.5625 256.3125 C41.74323059 257.4096722 41.92396118 258.50684441 42.11016846 259.63726425 C46.98031824 289.19725098 51.91903788 318.72999792 57.5201416 348.16169739 C58.79831973 354.88651088 60.02947945 361.61926231 61.24609375 368.35546875 C61.52400253 369.89349907 61.52400253 369.89349907 61.80752563 371.46260071 C62.52204512 375.42021654 63.23572898 379.37798073 63.94750977 383.33609009 C64.42044024 385.96393472 64.89557614 388.59137249 65.37109375 391.21875 C65.50712509 391.9787883 65.64315643 392.7388266 65.78330994 393.52189636 C66.46455348 397.27801876 67.21827425 400.9994862 68.07861328 404.71899414 C72.36648862 423.73785202 68.16411607 444.05302594 59 461 C58.54496094 461.86367188 58.08992188 462.72734375 57.62109375 463.6171875 C49.4483492 477.75050514 36.75911281 487.70168957 23 496 C22.25121582 496.45987305 21.50243164 496.91974609 20.73095703 497.39355469 C18.41107946 498.81620745 16.08325209 500.22440262 13.75 501.625 C13.02256592 502.06360352 12.29513184 502.50220703 11.5456543 502.95410156 C6.35668729 506 6.35668729 506 3 506 C-0.43591409 472.46209041 -2.62753046 438.82461271 -4.26586914 405.15356445 C-4.68809576 396.67231125 -5.28176626 388.21496143 -5.95703125 379.75 C-6.99682711 366.63956187 -7.75027252 353.52083639 -8.43261719 340.38745117 C-8.62867443 336.61683259 -8.82963611 332.84649708 -9.03125 329.07617188 C-9.15913188 326.65886884 -9.28674661 324.24155166 -9.4140625 321.82421875 C-9.47340973 320.70665695 -9.53275696 319.58909515 -9.59390259 318.43766785 C-9.6743129 316.88237114 -9.6743129 316.88237114 -9.75634766 315.2956543 C-9.80360992 314.3903447 -9.85087219 313.4850351 -9.89956665 312.55229187 C-9.99874623 310.03186173 -10.01770707 307.52208707 -10 305 C-10.66 305 -11.32 305 -12 305 C-12.97599092 313.26436723 -13.94863068 321.52900334 -14.89453125 329.796875 C-16.70158613 345.5025389 -18.66520571 361.17621745 -20.82192993 376.83776855 C-22.34006935 387.87914887 -23.73201967 398.92718845 -25 410 C-26.56568462 423.66166407 -28.33078088 437.28950366 -30.21484375 450.91088867 C-30.42588038 452.43797459 -30.63681962 453.96507396 -30.84765625 455.4921875 C-30.94942169 456.22893204 -31.05118713 456.96567657 -31.15603638 457.7247467 C-31.75607291 462.10582565 -32.3056717 466.48927504 -32.80859375 470.8828125 C-35.30979582 492.62002769 -40.85509768 513.29144639 -57 529 C-57.845625 529.886875 -58.69125 530.77375 -59.5625 531.6875 C-60.366875 532.450625 -61.17125 533.21375 -62 534 C-62.50015625 534.51820313 -63.0003125 535.03640625 -63.515625 535.5703125 C-67.82767606 539.75112722 -72.48542045 542.51738049 -77.8125 545.1875 C-78.77119995 545.66860229 -78.77119995 545.66860229 -79.74926758 546.15942383 C-85.34869083 548.86521821 -91.13362561 550.95174379 -97 553 C-97.95849854 553.33990967 -98.91699707 553.67981934 -99.90454102 554.0300293 C-134.44766409 566.12279839 -170.30908647 573.46031465 -207 573 C-207 572.34 -207 571.68 -207 571 C-205.98164063 570.731875 -204.96328125 570.46375 -203.9140625 570.1875 C-188.37432488 565.94719663 -173.47040562 560.47832804 -161 550 C-160.15179688 549.30132813 -159.30359375 548.60265625 -158.4296875 547.8828125 C-137.60988973 529.99179362 -129.8261755 506.70795128 -121 481.6875 C-120.44907684 480.13003555 -120.44907684 480.13003555 -119.88702393 478.54110718 C-113.15764913 459.50433249 -106.6851453 440.38748556 -100.37773132 421.2071228 C-98.98316187 416.96759424 -97.57716185 412.73224383 -96.15551758 408.50170898 C-95.68965744 407.11323006 -95.68965744 407.11323006 -95.21438599 405.69670105 C-94.62257594 403.93455052 -94.02910953 402.17295492 -93.43356323 400.4120636 C-90.85802923 392.73623887 -88.64474044 384.97039513 -86.4609375 377.17578125 C-85.04865363 372.14228085 -83.56939215 367.13090467 -82.0625 362.125 C-81.81894775 361.31442139 -81.57539551 360.50384277 -81.32446289 359.66870117 C-79.96911588 355.17219523 -78.59488536 350.68189064 -77.20703125 346.1953125 C-74.20387941 336.46446071 -71.33747137 326.76047434 -68.953125 316.859375 C-67.92427063 312.69335812 -66.7894532 308.56713064 -65.625 304.4375 C-63.44005691 296.66984215 -61.38499867 288.87283135 -59.36499023 281.06079102 C-58.0662174 276.05018678 -56.74757669 271.04669408 -55.37890625 266.0546875 C-45.01028277 228.22813265 -36.15421795 189.94709829 -28.36499023 151.50976562 C-26.99292981 144.7486798 -25.58058928 138.01332911 -23.9375 131.3125 C-13.5370478 88.17475945 -7.27088384 43.74911724 0 0 Z " fill="#1B2F47" transform="translate(441,47)"/>
<path d="M0 0 C1.79884644 0.00725098 1.79884644 0.00725098 3.6340332 0.01464844 C37.8968511 0.2462322 72.21015842 5.42160577 99.875 27.125 C100.90625 27.8675 101.9375 28.61 103 29.375 C115.50723993 41.33844689 124.68896722 58.37626664 125.2734375 75.83203125 C125.28647554 78.20049783 125.27809319 80.56916415 125.25 82.9375 C125.23912354 84.18217041 125.22824707 85.42684082 125.21704102 86.70922852 C125.06779374 95.29179193 124.48024953 102.90915951 121.875 111.125 C121.54435547 112.25301025 121.54435547 112.25301025 121.20703125 113.40380859 C113.51964385 139.58261663 100.01702346 162.99448594 82.875 184.125 C82.11445312 185.07761719 81.35390625 186.03023437 80.5703125 187.01171875 C76.27590664 192.33886235 71.82761722 197.49292254 67.2109375 202.54296875 C65.94021031 203.94756853 64.67575329 205.35842468 63.44604492 206.79907227 C58.54792839 212.52198025 53.29362217 217.85909889 47.9597168 223.1706543 C46.44008332 224.6849258 44.92587483 226.2044743 43.41210938 227.72460938 C38.07218865 233.06856628 32.63915109 238.23651567 26.875 243.125 C25.74504542 244.10947513 24.61610889 245.09512019 23.48828125 246.08203125 C16.37482223 252.25284524 9.13016099 258.16894157 1.59960938 263.82568359 C-0.21651909 265.19395026 -2.0225934 266.57481729 -3.828125 267.95703125 C-14.01166502 275.71817949 -24.48174161 283.00996825 -35.125 290.125 C-35.82173828 290.59260742 -36.51847656 291.06021484 -37.23632812 291.54199219 C-61.00610629 307.43045314 -86.21878674 321.57911515 -111.93847656 334.06054688 C-113.49768896 334.81960963 -115.05402973 335.58458293 -116.60839844 336.35351562 C-147.97666516 351.87097992 -180.77414742 364.38229549 -214.32617188 374.29052734 C-216.74126164 375.01058813 -219.14544059 375.75548944 -221.546875 376.51953125 C-276.7817927 393.88349953 -354.19059799 405.17840729 -408.24169922 378.11816406 C-428.32293196 367.52826845 -443.49681331 352.29056675 -450.5 330.375 C-458.58331175 297.43296803 -445.59995281 263.72674709 -428.9921875 235.71484375 C-423.53415954 226.82204474 -417.5948325 218.31031838 -411.125 210.125 C-410.795 210.785 -410.465 211.445 -410.125 212.125 C-411.26429409 214.62361059 -412.46253286 217.01666951 -413.75 219.4375 C-421.76793163 235.07133049 -426.33819743 250.01588687 -426.4375 267.625 C-426.44305908 268.44943604 -426.44861816 269.27387207 -426.4543457 270.12329102 C-426.27884253 284.91805843 -420.16486016 298.16244619 -409.6875 308.5390625 C-387.19950288 328.01527429 -358.47535517 331.54238373 -329.8125 331.4375 C-328.78588257 331.43567719 -327.75926514 331.43385437 -326.70153809 331.43197632 C-311.61404878 331.38679097 -296.99356118 330.87073465 -282.125 328.125 C-281.08085937 327.94275879 -280.03671875 327.76051758 -278.9609375 327.57275391 C-193.66184226 312.62793292 -110.69039135 273.75445414 -42.125 221.125 C-41.55072266 220.68671875 -40.97644531 220.2484375 -40.38476562 219.796875 C-31.36253195 212.88876209 -22.64852402 205.63873358 -14.125 198.125 C-13.391604 197.48062988 -12.65820801 196.83625977 -11.90258789 196.17236328 C-5.60282944 190.57635143 0.43317291 184.75307204 6.38891602 178.79638672 C7.93423066 177.2532647 9.48740446 175.71835694 11.04101562 174.18359375 C17.43578595 167.82469239 23.29173939 161.2214943 28.875 154.125 C29.75560269 153.04092868 30.63693371 151.95744783 31.51953125 150.875 C52.77018592 123.91921461 68.8087712 93.12625869 66.875 58.125 C64.9852405 43.40729681 56.65411204 31.288605 45.3125 22 C24.58522286 7.51142806 1.30087363 4.74491494 -23.125 2.125 C-23.125 1.795 -23.125 1.465 -23.125 1.125 C-15.40188409 0.16589169 -7.77708227 -0.03292351 0 0 Z " fill="#F7931D" transform="translate(562.125,312.875)"/>
<path d="M0 0 C0.33 0 0.66 0 1 0 C-1.21794708 45.5061556 -13.30755021 91.02582109 -33 132 C-33.32677734 132.69448242 -33.65355469 133.38896484 -33.99023438 134.10449219 C-44.72068547 156.88221445 -58.77849958 178.42153306 -76.45507812 196.41992188 C-78.0883703 198.09038126 -79.69237859 199.78626737 -81.296875 201.484375 C-89.48590318 210.03793119 -98.26520047 217.27011376 -108 224 C-109.04414062 224.72832031 -110.08828125 225.45664062 -111.1640625 226.20703125 C-135.03507109 241.84346711 -165.64023085 251.35105253 -194.12915039 245.81738281 C-215.96641412 241.04113095 -233.58916165 228.81778282 -246.69921875 210.64453125 C-253.45593046 199.98184168 -257.56633168 187.75731299 -262 176 C-262.40814941 174.94119629 -262.81629883 173.88239258 -263.23681641 172.79150391 C-266.67361619 163.59486981 -269.14930496 154.25948252 -271.48486328 144.73291016 C-272.12292819 142.13344051 -272.77349022 139.53733833 -273.42578125 136.94140625 C-282.57276389 100.23501458 -282.57276389 100.23501458 -278.5 90.75 C-273.65759159 82.76100638 -265.844774 78.5459546 -257.6875 74.5625 C-233.61959879 62.3990677 -209.43643862 48.40576468 -188 32 C-187.21568604 31.40058594 -187.21568604 31.40058594 -186.41552734 30.7890625 C-183.6172998 28.64843059 -180.82550802 26.49969211 -178.0390625 24.34375 C-174.38565197 21.52620974 -170.69955979 18.75653475 -167 16 C-168.45157085 19.77825141 -170.15356103 23.36857208 -171.9375 27 C-179.45548333 43.43295133 -180.48646931 61.74094471 -175 79 C-174.67128906 80.05316406 -174.34257813 81.10632813 -174.00390625 82.19140625 C-166.83348024 102.80948241 -152.35689813 118.03416918 -133.375 128.375 C-132.79032959 128.69670166 -132.20565918 129.01840332 -131.60327148 129.34985352 C-123.1540797 133.76528279 -114.99583664 135.50123712 -105.5 135.375 C-104.62730469 135.38660156 -103.75460937 135.39820313 -102.85546875 135.41015625 C-84.98153857 135.33071656 -70.32647375 125.12001638 -57.8125 113.1875 C-28.34449802 82.1815021 -13.14181567 39.80575679 0 0 Z " fill="#1A2E46" transform="translate(739,584)"/>
<path d="M0 0 C-0.64978043 6.0019192 -1.32204121 12.00120224 -2 18 C-2.20133545 19.78664063 -2.20133545 19.78664063 -2.40673828 21.609375 C-3.55546396 31.74563879 -4.75447303 41.87517264 -6 52 C-6.0968811 52.78995361 -6.19376221 53.57990723 -6.2935791 54.39379883 C-6.88596307 59.20244834 -7.49836601 64.00798501 -8.13412476 68.81109619 C-8.33238692 70.32328145 -8.52596917 71.83608964 -8.71426392 73.34954834 C-11.42131042 94.99435049 -17.81720659 113.60637588 -35 128 C-49.52258602 138.76312552 -64.65407806 141.48511447 -82.45068359 141.34057617 C-83.94041425 141.3397274 -85.43014616 141.34020991 -86.9198761 141.34190369 C-90.91696689 141.34275532 -94.91378094 141.32526644 -98.91080809 141.30418181 C-103.10545116 141.28527433 -107.30010238 141.28365359 -111.49478149 141.28010559 C-119.41692752 141.27082607 -127.33894757 141.24626847 -135.26103842 141.21605712 C-144.28898484 141.18238473 -153.31693766 141.165995 -162.34493136 141.15097082 C-180.89669201 141.11971467 -199.44833583 141.06703491 -218 141 C-213.62150562 133.28882486 -213.62150562 133.28882486 -211.625 130.66796875 C-211.2036377 130.10706543 -210.78227539 129.54616211 -210.34814453 128.96826172 C-209.90325684 128.38061035 -209.45836914 127.79295898 -209 127.1875 C-191.25913683 103.3233129 -175.93112531 77.52355858 -161.515625 51.546875 C-161.15637939 50.90290771 -160.79713379 50.25894043 -160.42700195 49.59545898 C-159.52518457 47.97049665 -158.63500185 46.33909116 -157.74609375 44.70703125 C-151.96317203 35.74156201 -142.87523189 29.78935571 -132.58129883 27.45043945 C-130.00181217 27.00031623 -127.49953611 26.7652096 -124.88671875 26.60546875 C-85.85736233 23.99523531 -47.93802312 14.75124996 -10.88012695 2.48876953 C-9.89101318 2.16376465 -8.90189941 1.83875977 -7.8828125 1.50390625 C-6.57401123 1.06800171 -6.57401123 1.06800171 -5.23876953 0.62329102 C-3 0 -3 0 0 0 Z " fill="#1A2E46" transform="translate(384,702)"/>
<path d="M0 0 C1.79884644 0.00725098 1.79884644 0.00725098 3.6340332 0.01464844 C37.8968511 0.2462322 72.21015842 5.42160577 99.875 27.125 C100.90625 27.8675 101.9375 28.61 103 29.375 C115.50723993 41.33844689 124.68896722 58.37626664 125.2734375 75.83203125 C125.28647554 78.20049783 125.27809319 80.56916415 125.25 82.9375 C125.2336853 84.80450562 125.2336853 84.80450562 125.21704102 86.70922852 C125.06779374 95.29179193 124.48024953 102.90915951 121.875 111.125 C121.65457031 111.87700684 121.43414063 112.62901367 121.20703125 113.40380859 C113.51964385 139.58261663 100.01702346 162.99448594 82.875 184.125 C82.11445312 185.07761719 81.35390625 186.03023437 80.5703125 187.01171875 C76.27590664 192.33886235 71.82761722 197.49292254 67.2109375 202.54296875 C65.94021031 203.94756853 64.67575329 205.35842468 63.44604492 206.79907227 C58.54792839 212.52198025 53.29362217 217.85909889 47.9597168 223.1706543 C46.44008332 224.6849258 44.92587483 226.2044743 43.41210938 227.72460938 C38.07218865 233.06856628 32.63915109 238.23651567 26.875 243.125 C25.74504542 244.10947513 24.61610889 245.09512019 23.48828125 246.08203125 C16.37482223 252.25284524 9.13016099 258.16894157 1.59960938 263.82568359 C-0.21651909 265.19395026 -2.0225934 266.57481729 -3.828125 267.95703125 C-14.01166502 275.71817949 -24.48174161 283.00996825 -35.125 290.125 C-35.82173828 290.59260742 -36.51847656 291.06021484 -37.23632812 291.54199219 C-61.00610629 307.43045314 -86.21878674 321.57911515 -111.93847656 334.06054688 C-113.49768896 334.81960963 -115.05402973 335.58458293 -116.60839844 336.35351562 C-147.97666516 351.87097992 -180.77414742 364.38229549 -214.32617188 374.29052734 C-216.74126164 375.01058813 -219.14544059 375.75548944 -221.546875 376.51953125 C-262.17406004 389.29132818 -303.83343676 392.62057447 -346.125 392.125 C-346.125 391.795 -346.125 391.465 -346.125 391.125 C-345.26672607 391.03001221 -344.40845215 390.93502441 -343.52416992 390.8371582 C-305.33439477 386.55488156 -268.70161515 379.09054165 -232.125 367.125 C-231.30628418 366.85719727 -230.48756836 366.58939453 -229.64404297 366.31347656 C-208.33886775 359.25211137 -187.42411587 350.68246856 -167.125 341.125 C-166.16561523 340.67543945 -165.20623047 340.22587891 -164.21777344 339.76269531 C-127.84411893 322.669508 -92.9497881 303.37389493 -60.125 280.125 C-59.39829102 279.6108252 -58.67158203 279.09665039 -57.92285156 278.56689453 C-39.89294086 265.76911783 -22.80574827 252.11201332 -6.44921875 237.23046875 C-4.96456066 235.88554319 -3.46817157 234.55338175 -1.95703125 233.23828125 C10.17859991 222.60654931 22.14215706 211.18329807 32.05859375 198.43359375 C33.81868188 196.19657851 35.68211007 194.14103317 37.625 192.0625 C66.83987028 159.47220646 87.3825943 118.28624715 86.04541016 74.14599609 C85.02038222 55.97451227 75.81280401 41.3331617 62.875 29.125 C50.8985868 18.87990138 36.86806576 12.52069428 21.875 8.125 C20.31446899 7.63193359 20.31446899 7.63193359 18.72241211 7.12890625 C14.42802886 6.0083717 10.28547868 5.48240385 5.87890625 5.0546875 C5.04536118 4.96873322 4.2118161 4.88277893 3.35301208 4.79421997 C0.71507134 4.52355957 -1.92365132 4.26164427 -4.5625 4 C-6.36138715 3.81698546 -8.16021605 3.63339745 -9.95898438 3.44921875 C-14.34701054 3.0011781 -18.73575912 2.56097318 -23.125 2.125 C-23.125 1.795 -23.125 1.465 -23.125 1.125 C-15.40188409 0.16589169 -7.77708227 -0.03292351 0 0 Z " fill="#CC7F25" transform="translate(562.125,312.875)"/>
<path d="M0 0 C8.87296697 8.87296697 13.97682371 19.99574231 14.1875 32.5 C13.79190912 44.76331742 10.22706732 55.54587649 1.625 64.6875 C-3.1382313 69.10649777 -8.29715518 72.12567605 -14.1875 74.8125 C-14.90421875 75.1528125 -15.6209375 75.493125 -16.359375 75.84375 C-25.03648813 79.36678842 -36.33247961 79.36184912 -45.01171875 75.84765625 C-46.08873047 75.33525391 -46.08873047 75.33525391 -47.1875 74.8125 C-48.08082031 74.39871094 -48.97414063 73.98492187 -49.89453125 73.55859375 C-60.83276801 68.06703029 -67.07431725 60.85124034 -72.1875 49.8125 C-72.52910156 49.09449219 -72.87070312 48.37648438 -73.22265625 47.63671875 C-76.88270836 38.59724122 -76.47528171 27.24685255 -73.21875 18.140625 C-66.8901873 3.85341528 -57.35008267 -4.26143801 -43.1875 -10.1875 C-27.70506568 -15.54560604 -12.50379643 -8.58103677 0 0 Z " fill="#F8931D" transform="translate(584.1875,214.1875)"/>
<path d="M0 0 C6.68544188 5.50856676 11.25415772 11.45982975 12.43017578 20.20361328 C13.40338802 30.87791153 12.73769938 40.17446014 6.140625 49.05078125 C0.548677 55.7486923 -7.40654504 60.27599412 -16.11230469 61.32128906 C-25.09333971 61.96821271 -34.15906782 62.2876427 -41.859375 57.05078125 C-42.5503125 56.62667969 -43.24125 56.20257812 -43.953125 55.765625 C-50.60763778 51.30859125 -55.4884959 44.72636701 -57.859375 37.05078125 C-58.92637258 26.87198342 -59.09286571 16.09464627 -53.078125 7.5078125 C-39.67114495 -8.93516847 -17.54027753 -11.95710176 0 0 Z " fill="#F8941F" transform="translate(809.859375,524.94921875)"/>
<path d="M0 0 C5.713125 -0.0825 11.42625 -0.165 17.3125 -0.25 C19.09180908 -0.28641602 20.87111816 -0.32283203 22.7043457 -0.36035156 C34.16919581 -0.49722669 43.99521857 0.73751346 53.21484375 8.234375 C59.82218331 14.76942419 62.98793526 22.05591361 63.3125 31.3125 C63.09440153 40.69073405 60.23912511 48.90452438 54 56 C42.88759948 65.58470704 31.27048237 65.39768247 17.4375 65.1875 C8.8059375 65.0946875 8.8059375 65.0946875 0 65 C0 43.55 0 22.1 0 0 Z " fill="#F8941E" transform="translate(839,520)"/>
<path d="M0 0 C5.94907936 4.12379365 11.01810445 9.91377796 13.75 16.6796875 C13.875 19.4296875 13.875 19.4296875 13.75 21.6796875 C10.85190611 21.84219744 7.96295149 21.96076386 5.0625 22.0546875 C3.83756836 22.13009766 3.83756836 22.13009766 2.58789062 22.20703125 C-3.41948131 22.35295931 -3.41948131 22.35295931 -5.87084961 20.36572266 C-7.1953125 18.7421875 -7.1953125 18.7421875 -9.25 15.6796875 C-13.7102888 12.8760774 -19.14894807 13.03388125 -24.25 13.6796875 C-28.30805146 15.52425635 -29.83825073 16.99343871 -32.125 20.8046875 C-33.75837086 25.31590227 -33.87494403 29.95254678 -33.25 34.6796875 C-31.8990712 37.6051519 -31.8990712 37.6051519 -30.25 39.6796875 C-30.25 40.3396875 -30.25 40.9996875 -30.25 41.6796875 C-29.46625 41.9890625 -28.6825 42.2984375 -27.875 42.6171875 C-25.25 43.6796875 -25.25 43.6796875 -23.25 44.6796875 C-17.72012119 45.244626 -13.86236088 45.03413178 -9.25 41.6796875 C-8.59 41.6796875 -7.93 41.6796875 -7.25 41.6796875 C-6.940625 40.8753125 -6.63125 40.0709375 -6.3125 39.2421875 C-5.25 36.6796875 -5.25 36.6796875 -4.25 35.6796875 C-2.83429877 35.59317139 -1.414405 35.57263846 0.00390625 35.58203125 C1.28491211 35.58686523 1.28491211 35.58686523 2.59179688 35.59179688 C3.48962891 35.60017578 4.38746094 35.60855469 5.3125 35.6171875 C6.21419922 35.62169922 7.11589844 35.62621094 8.04492188 35.63085938 C10.28001314 35.64268525 12.51497437 35.6591653 14.75 35.6796875 C13.45169571 44.65326129 9.85298092 50.97788055 2.75 56.6796875 C-7.32631333 63.26673692 -17.41590973 64.00201523 -29.25 62.6796875 C-38.86551397 59.97371042 -45.74883189 53.85646419 -50.625 45.25390625 C-54.37164111 36.68086289 -54.84238105 25.87890356 -52.51953125 16.8359375 C-51.59127925 14.62328783 -50.54585183 12.69593064 -49.25 10.6796875 C-48.899375 10.05964844 -48.54875 9.43960938 -48.1875 8.80078125 C-43.86745362 1.85570668 -36.51636703 -2.59037645 -28.7578125 -4.84765625 C-18.39553709 -6.80067077 -9.07828452 -5.32718779 0 0 Z " fill="#F8941F" transform="translate(724.25,523.3203125)"/>
<path d="M0 0 C14.85 0 29.7 0 45 0 C45 4.95 45 9.9 45 15 C36.42 15 27.84 15 19 15 C19 17.97 19 20.94 19 24 C26.59 24 34.18 24 42 24 C42 28.95 42 33.9 42 39 C34.08 39 26.16 39 18 39 C18 42.63 18 46.26 18 50 C27.24 50 36.48 50 46 50 C46 54.95 46 59.9 46 65 C30.82 65 15.64 65 0 65 C0 43.55 0 22.1 0 0 Z " fill="#F8941F" transform="translate(918,520)"/>
<path d="M0 0 C3.96 0 7.92 0 12 0 C12.98498266 3.35255565 13.96313733 6.70685741 14.9375 10.0625 C15.21529297 11.00544922 15.49308594 11.94839844 15.77929688 12.91992188 C17.23385919 17.94955302 18.42945832 22.79290445 19 28 C19.66 28 20.32 28 21 28 C21.18755859 26.7625 21.18755859 26.7625 21.37890625 25.5 C22.06735005 21.62046767 22.97237187 17.81745849 23.9375 14 C24.10701172 13.31421875 24.27652344 12.6284375 24.45117188 11.921875 C25.46534605 7.88060299 26.62775497 3.9382817 28 0 C31.96 0 35.92 0 40 0 C40 12.21 40 24.42 40 37 C37.36 37 34.72 37 32 37 C31.505 25.615 31.505 25.615 31 14 C29.4433339 19.3240991 29.4433339 19.3240991 27.88916016 24.64892578 C26.67313278 28.79568797 25.39820023 32.90993763 24 37 C21.36 37 18.72 37 16 37 C12.39398052 28.84809427 10.19381965 20.6185772 8 12 C7.67 20.25 7.34 28.5 7 37 C4.69 37 2.38 37 0 37 C0 24.79 0 12.58 0 0 Z " fill="#24374E" transform="translate(695,858)"/>
<path d="M0 0 C4.881441 2.26638332 7.70028068 5.13520912 10 10 C10.9210986 16.13752437 10.56126526 21.91526779 7.38671875 27.33984375 C4.27274457 31.067841 0.44214936 32.59717124 -4.2734375 33.375 C-9.97596645 33.6864009 -13.44003287 32.39762257 -18 29 C-21.87847692 25.12152308 -22.31322031 21.79610812 -22.5 16.5 C-22.26207133 9.52869008 -20.52068994 6.39465544 -15.5 1.625 C-10.33499991 -0.77303575 -5.5997712 -0.75381535 0 0 Z " fill="#FEFDFB" transform="translate(793,536)"/>
<path d="M0 0 C3.3 0 6.6 0 10 0 C11.39614403 2.47899213 12.79192054 4.95819006 14.1875 7.4375 C14.57486328 8.12521484 14.96222656 8.81292969 15.36132812 9.52148438 C18.25943828 14.67101896 21.13020872 19.83437569 24 25 C24.33 16.75 24.66 8.5 25 0 C27.64 0 30.28 0 33 0 C33 12.21 33 24.42 33 37 C29.37 37 25.74 37 22 37 C17.71 29.08 13.42 21.16 9 13 C8.67 20.92 8.34 28.84 8 37 C5.36 37 2.72 37 0 37 C0 24.79 0 12.58 0 0 Z " fill="#2A3D53" transform="translate(397,858)"/>
<path d="M0 0 C3.17625 -0.061875 6.3525 -0.12375 9.625 -0.1875 C11.1092749 -0.22846802 11.1092749 -0.22846802 12.62353516 -0.27026367 C18.77371632 -0.32807314 23.26726487 0.35835604 27.875 4.8125 C29.41542833 7.80777732 29.47570543 9.670062 29 13 C27.20006226 15.69990662 25.916227 17.5418865 23 19 C23.61875 19.7425 24.2375 20.485 24.875 21.25 C28.05242592 25.91473167 28.326459 31.52304819 29 37 C26.36 37 23.72 37 21 37 C20.86722656 36.24074219 20.73445313 35.48148438 20.59765625 34.69921875 C20.42105469 33.70535156 20.24445313 32.71148438 20.0625 31.6875 C19.88847656 30.70136719 19.71445313 29.71523438 19.53515625 28.69921875 C19.04253153 25.91810787 19.04253153 25.91810787 18 23 C14.7 22.67 11.4 22.34 8 22 C8 26.95 8 31.9 8 37 C5.36 37 2.72 37 0 37 C0 24.79 0 12.58 0 0 Z " fill="#25384F" transform="translate(226,858)"/>
<path d="M0 0 C3.3 0 6.6 0 10 0 C14.62 8.58 19.24 17.16 24 26 C24.33 17.42 24.66 8.84 25 0 C27.31 0 29.62 0 32 0 C32 12.21 32 24.42 32 37 C28.7 37 25.4 37 22 37 C20.60385597 34.52100787 19.20807946 32.04180994 17.8125 29.5625 C17.42513672 28.87478516 17.03777344 28.18707031 16.63867188 27.47851562 C13.74056172 22.32898104 10.86979128 17.16562431 8 12 C7.67 20.25 7.34 28.5 7 37 C4.69 37 2.38 37 0 37 C0 24.79 0 12.58 0 0 Z " fill="#1D3148" transform="translate(288,858)"/>
<path d="M0 0 C3.01125 -0.061875 6.0225 -0.12375 9.125 -0.1875 C10.06230957 -0.21481201 10.99961914 -0.24212402 11.96533203 -0.27026367 C18.00847613 -0.3301159 21.88585635 0.71717435 26.84375 4.3515625 C29.37691555 7.96303501 28.67063634 12.82986133 28 17 C25.7984026 19.89683868 24.21405538 21.39297231 21 23 C16.66396021 23.1393329 12.33919329 23.04254111 8 23 C8 27.62 8 32.24 8 37 C5.36 37 2.72 37 0 37 C0 24.79 0 12.58 0 0 Z " fill="#283B51" transform="translate(769,858)"/>
<path d="M0 0 C1.69576172 -0.03867187 1.69576172 -0.03867187 3.42578125 -0.078125 C8.19149597 0.40130019 10.69454056 2.20187614 13.9375 5.625 C15.70887085 8.28205627 16.32836121 10.10753556 16.6875 13.25 C14.0475 13.25 11.4075 13.25 8.6875 13.25 C8.378125 12.280625 8.06875 11.31125 7.75 10.3125 C6.05742021 7.17398503 6.05742021 7.17398503 3.66015625 6.453125 C1.18823454 6.04182355 -0.82798555 5.90565501 -3.3125 6.25 C-6.63625203 8.74281402 -8.00184755 10.31804266 -9.3125 14.25 C-9.71195522 20.24182824 -9.08355257 23.92105275 -6.3125 29.25 C-3.70545102 31.85704898 -1.83911759 31.48905333 1.71484375 31.515625 C4.00702326 31.35382514 4.00702326 31.35382514 6.6875 29.25 C7.89200304 26.69816596 7.89200304 26.69816596 8.6875 24.25 C6.0475 24.25 3.4075 24.25 0.6875 24.25 C0.6875 22.27 0.6875 20.29 0.6875 18.25 C5.6375 18.25 10.5875 18.25 15.6875 18.25 C15.6875 24.52 15.6875 30.79 15.6875 37.25 C13.7075 37.25 11.7275 37.25 9.6875 37.25 C9.3575 36.26 9.0275 35.27 8.6875 34.25 C8.048125 34.91 7.40875 35.57 6.75 36.25 C2.61880905 38.94792062 -0.50696967 38.93893444 -5.3125 38.25 C-10.98726113 36.28565961 -14.62650331 32.62199338 -17.3125 27.25 C-17.49028623 24.65024068 -17.59003022 22.10175193 -17.625 19.5 C-17.65400391 18.79617188 -17.68300781 18.09234375 -17.71289062 17.3671875 C-17.77536603 12.19614643 -16.67424716 9.37104889 -13.3125 5.25 C-8.65047906 1.14298155 -6.18836986 0.08410016 0 0 Z " fill="#23374D" transform="translate(480.3125,857.75)"/>
<path d="M0 0 C15 0 15 0 21 4 C24.68022786 8.70381565 24.61823383 13.03152513 24.48046875 18.82421875 C23.8652282 22.89080871 22.66160481 24.98428624 19.6875 27.765625 C13.39713839 32.36690803 8.17625127 31 0 31 C0 20.77 0 10.54 0 0 Z " fill="#FEFEFD" transform="translate(858,537)"/>
<path d="M0 0 C1.23556641 0.01740234 1.23556641 0.01740234 2.49609375 0.03515625 C3.32238281 0.04417969 4.14867187 0.05320312 5 0.0625 C5.63808594 0.07410156 6.27617188 0.08570313 6.93359375 0.09765625 C10.46511604 7.99264598 13.39919795 16.06058576 16.24609375 24.22265625 C16.7884668 25.7706189 16.7884668 25.7706189 17.34179688 27.34985352 C17.67759766 28.32108154 18.01339844 29.29230957 18.359375 30.29296875 C18.66270752 31.16969238 18.96604004 32.04641602 19.27856445 32.94970703 C19.93359375 35.09765625 19.93359375 35.09765625 19.93359375 37.09765625 C17.29359375 37.09765625 14.65359375 37.09765625 11.93359375 37.09765625 C11.42744077 35.82926099 10.92890276 34.55782523 10.43359375 33.28515625 C10.15515625 32.57746094 9.87671875 31.86976563 9.58984375 31.140625 C8.93359375 29.09765625 8.93359375 29.09765625 8.93359375 26.09765625 C2.49859375 26.59265625 2.49859375 26.59265625 -4.06640625 27.09765625 C-5.05640625 30.39765625 -6.04640625 33.69765625 -7.06640625 37.09765625 C-9.70640625 37.09765625 -12.34640625 37.09765625 -15.06640625 37.09765625 C-13.55682337 29.0925539 -10.87495748 21.7077694 -8.00390625 14.09765625 C-7.53923528 12.84653169 -7.07503912 11.59523068 -6.61132812 10.34375 C-2.79455783 0.13206795 -2.79455783 0.13206795 0 0 Z " fill="#23364D" transform="translate(644.06640625,857.90234375)"/>
<path d="M0 0 C1.23556641 0.01740234 1.23556641 0.01740234 2.49609375 0.03515625 C3.32238281 0.04417969 4.14867187 0.05320312 5 0.0625 C5.63808594 0.07410156 6.27617187 0.08570313 6.93359375 0.09765625 C10.46511604 7.99264598 13.39919795 16.06058576 16.24609375 24.22265625 C16.7884668 25.7706189 16.7884668 25.7706189 17.34179688 27.34985352 C17.67759766 28.32108154 18.01339844 29.29230957 18.359375 30.29296875 C18.66270752 31.16969238 18.96604004 32.04641602 19.27856445 32.94970703 C19.93359375 35.09765625 19.93359375 35.09765625 19.93359375 37.09765625 C17.29359375 37.09765625 14.65359375 37.09765625 11.93359375 37.09765625 C11.42744077 35.82926099 10.92890276 34.55782523 10.43359375 33.28515625 C10.15515625 32.57746094 9.87671875 31.86976563 9.58984375 31.140625 C8.93359375 29.09765625 8.93359375 29.09765625 8.93359375 26.09765625 C2.49859375 26.59265625 2.49859375 26.59265625 -4.06640625 27.09765625 C-5.05640625 30.39765625 -6.04640625 33.69765625 -7.06640625 37.09765625 C-9.70640625 37.09765625 -12.34640625 37.09765625 -15.06640625 37.09765625 C-13.55682337 29.0925539 -10.87495748 21.7077694 -8.00390625 14.09765625 C-7.53923528 12.84653169 -7.07503912 11.59523068 -6.61132812 10.34375 C-2.79455783 0.13206795 -2.79455783 0.13206795 0 0 Z " fill="#23364D" transform="translate(175.06640625,857.90234375)"/>
<path d="M0 0 C8.58 0 17.16 0 26 0 C26 1.98 26 3.96 26 6 C20.06 6 14.12 6 8 6 C8 8.97 8 11.94 8 15 C13.61 15 19.22 15 25 15 C25 17.31 25 19.62 25 22 C19.39 22 13.78 22 8 22 C8 24.97 8 27.94 8 31 C14.27 31 20.54 31 27 31 C27 32.98 27 34.96 27 37 C18.09 37 9.18 37 0 37 C0 24.79 0 12.58 0 0 Z " fill="#2B3D53" transform="translate(104,858)"/>
<path d="M0 0 C4.52232768 2.10522151 6.94998748 4.44441662 9 9 C9 10.32 9 11.64 9 13 C6.69 13 4.38 13 2 13 C1.690625 12.030625 1.38125 11.06125 1.0625 10.0625 C-0.63007979 6.92398503 -0.63007979 6.92398503 -3.02734375 6.203125 C-5.50102907 5.79153011 -7.51406715 5.65109714 -10 6 C-12.80665387 8.16346236 -14.424034 9.84806801 -16 13 C-16.64581656 19.09799868 -15.8646205 23.60129213 -13 29 C-11.00442887 31.4282022 -11.00442887 31.4282022 -7.0625 31.3125 C-3.887954 31.22805958 -3.887954 31.22805958 -1.125 29.75 C0.07323197 27.88608361 1.09356523 26.0220468 2 24 C4.31 24 6.62 24 9 24 C8.54655595 28.87452354 7.52912227 31.56374937 4 35 C-1.21488029 37.96532409 -6.10761992 39.07318263 -12 38 C-17.68033327 35.65159367 -21.05467303 32.43064627 -24 27 C-24.38885986 24.16361043 -24.56348206 21.81437126 -24.5 19 C-24.51546875 18.31421875 -24.5309375 17.6284375 -24.546875 16.921875 C-24.50790281 11.81651759 -23.17138328 8.93228293 -20 5 C-13.58874705 -0.64800855 -8.40665233 -0.73634911 0 0 Z " fill="#24374E" transform="translate(590,858)"/>
<path d="M0 0 C10.56 0 21.12 0 32 0 C32 4.29 32 8.58 32 13 C21.44 13 10.88 13 0 13 C0 8.71 0 4.42 0 0 Z " fill="#F89929" transform="translate(624,555)"/>
<path d="M0 0 C2.64 0 5.28 0 8 0 C8 10.23 8 20.46 8 31 C14.27 31 20.54 31 27 31 C27 32.98 27 34.96 27 37 C18.09 37 9.18 37 0 37 C0 24.79 0 12.58 0 0 Z " fill="#283A51" transform="translate(45,858)"/>
<path d="M0 0 C2.31 0 4.62 0 7 0 C7 12.21 7 24.42 7 37 C4.69 37 2.38 37 0 37 C0 24.79 0 12.58 0 0 Z " fill="#1B2F47" transform="translate(355,858)"/>
<path d="M0 0 C1.5675 -0.061875 3.135 -0.12375 4.75 -0.1875 C6.07257813 -0.23970703 6.07257813 -0.23970703 7.421875 -0.29296875 C10.49021392 0.05570613 11.79575743 0.87159147 14 3 C14.5 5.5 14.5 5.5 14 8 C11.79575743 10.12840853 10.49021392 10.94429387 7.421875 11.29296875 C6.54015625 11.25816406 5.6584375 11.22335937 4.75 11.1875 C3.1825 11.125625 1.615 11.06375 0 11 C0 7.37 0 3.74 0 0 Z " fill="#ECEEF0" transform="translate(233,864)"/>
<path d="M0 0 C8.36923077 -0.36923077 8.36923077 -0.36923077 11.5625 1.5 C12.036875 1.995 12.51125 2.49 13 3 C12.74438677 5.3431213 12.40729228 7.67843403 12 10 C9.47524538 11.26237731 7.68799534 11.09856404 4.875 11.0625 C3.26625 11.041875 1.6575 11.02125 0 11 C0 7.37 0 3.74 0 0 Z " fill="#F9FAFA" transform="translate(777,864)"/>
<path d="M0 0 C1.86398437 0.00676758 1.86398437 0.00676758 3.765625 0.01367188 C6.80213502 0.02535076 9.83854088 0.0417286 12.875 0.0625 C12.875 0.3925 12.875 0.7225 12.875 1.0625 C4.46 1.5575 4.46 1.5575 -4.125 2.0625 C-0.825 2.7225 2.475 3.3825 5.875 4.0625 C1.92947561 5.0488811 -0.23799238 4.98982936 -4.203125 4.50390625 C-5.36328125 4.36533203 -6.5234375 4.22675781 -7.71875 4.08398438 C-8.9253125 3.93251953 -10.131875 3.78105469 -11.375 3.625 C-12.59703125 3.47740234 -13.8190625 3.32980469 -15.078125 3.17773438 C-18.09460038 2.81245806 -21.11009354 2.44047219 -24.125 2.0625 C-24.125 1.7325 -24.125 1.4025 -24.125 1.0625 C-16.07026218 0.03094464 -8.1118879 -0.05645318 0 0 Z " fill="#EBA34E" transform="translate(563.125,312.9375)"/>
<path d="M0 0 C2.87579981 4.31369972 4 7.80734761 4 13 C1.36 13 -1.28 13 -4 13 C-3.52511102 11.01980257 -3.04497141 9.04086365 -2.5625 7.0625 C-2.29566406 5.96035156 -2.02882813 4.85820313 -1.75390625 3.72265625 C-1 1 -1 1 0 0 Z " fill="#E9EBED" transform="translate(646,865)"/>
<path d="M0 0 C2.87579981 4.31369972 4 7.80734761 4 13 C1.36 13 -1.28 13 -4 13 C-3.52511102 11.01980257 -3.04497141 9.04086365 -2.5625 7.0625 C-2.29566406 5.96035156 -2.02882812 4.85820313 -1.75390625 3.72265625 C-1 1 -1 1 0 0 Z " fill="#E9EBED" transform="translate(177,865)"/>
<path d="M0 0 C7.7498635 0.52541447 14.6450086 2.55591476 22 5 C22 5.66 22 6.32 22 7 C17.00549741 6.3146345 12.4032406 4.97984349 7.625 3.4375 C6.88894531 3.20353516 6.15289063 2.96957031 5.39453125 2.72851562 C3.59518762 2.1559972 1.79742723 1.57850686 0 1 C0 0.67 0 0.34 0 0 Z " fill="#F59A2F" transform="translate(571,318)"/>
<path d="M0 0 C0.33 0.66 0.66 1.32 1 2 C-0.07421875 4.56640625 -0.07421875 4.56640625 -1.6875 7.5625 C-2.46673828 9.04943359 -2.46673828 9.04943359 -3.26171875 10.56640625 C-5 13 -5 13 -7.20703125 13.83984375 C-7.79871094 13.89269531 -8.39039063 13.94554687 -9 14 C-7.45158425 10.65291949 -5.50894136 7.75332488 -3.375 4.75 C-2.74335938 3.85796875 -2.11171875 2.9659375 -1.4609375 2.046875 C-0.73777344 1.03367187 -0.73777344 1.03367187 0 0 Z " fill="#F8A139" transform="translate(151,523)"/>
<path d="M0 0 C0.33 0 0.66 0 1 0 C0.67 4.62 0.34 9.24 0 14 C-0.99 13.34 -1.98 12.68 -3 12 C-2.69106068 10.3743193 -2.3777305 8.74947252 -2.0625 7.125 C-1.88847656 6.22007812 -1.71445312 5.31515625 -1.53515625 4.3828125 C-1 2 -1 2 0 0 Z " fill="#455569" transform="translate(739,584)"/>
</svg>
