<?xml version="1.0" encoding="UTF-8"?>
<svg version="1.1" xmlns="http://www.w3.org/2000/svg" width="250" height="250">
<path d="M0 0 C82.5 0 165 0 250 0 C250 82.5 250 165 250 250 C167.5 250 85 250 0 250 C0 167.5 0 85 0 0 Z " fill="#010100" transform="translate(0,0)"/>
<path d="M0 0 C0.99 0 1.98 0 3 0 C2.98839844 1.00160156 2.97679687 2.00320312 2.96484375 3.03515625 C2.95545602 4.37760228 2.94635688 5.72005036 2.9375 7.0625 C2.92589844 8.37347656 2.91429687 9.68445313 2.90234375 11.03515625 C2.67587631 17.44157728 2.67587631 17.44157728 5 23 C8.96 15.74 12.92 8.48 17 1 C18.15866723 5.63466892 17.70010994 8.33260039 17 13 C22.94 12.505 22.94 12.505 29 12 C29.33 11.01 29.66 10.02 30 9 C30.99 9.33 31.98 9.66 33 10 C33 10.99 33 11.98 33 13 C37.29 13 41.58 13 46 13 C45.67 14.32 45.34 15.64 45 17 C44.01 17 43.02 17 42 17 C42 18.65 42 20.3 42 22 C41.01 22 40.02 22 39 22 C38.75507813 22.55429687 38.51015625 23.10859375 38.2578125 23.6796875 C36.22974721 27.4209011 33.39660963 30.4994397 30.6796875 33.7578125 C28.80014876 35.79985101 28.80014876 35.79985101 29 38 C30.7015625 38.7115625 30.7015625 38.7115625 32.4375 39.4375 C36 41 36 41 37 42 C37.07319621 44.69654854 37.09242537 47.36691458 37.0625 50.0625 C37.05798828 50.82111328 37.05347656 51.57972656 37.04882812 52.36132812 C37.0370068 54.24091871 37.01907078 56.12046899 37 58 C36.34 58 35.68 58 35 58 C33.76546698 56.17825464 32.75548879 54.26984151 31.70703125 52.3359375 C27.06735466 45.98690637 21.71262714 42.95494193 14.1875 41.0625 C13.39214844 40.8557666 12.59679687 40.6490332 11.77734375 40.43603516 C2.57312033 38.20077747 -4.28393999 38.81878571 -12.67578125 43.4296875 C-20.63151875 48.80482443 -24.72564468 56.64521482 -26.5859375 65.921875 C-28.67320172 81.43851845 -25.20281915 95.79091947 -16.15625 108.61328125 C-13.7878358 111.23484117 -11.44217662 112.90222608 -8.4375 114.75 C-7.01244141 115.63945312 -7.01244141 115.63945312 -5.55859375 116.546875 C1.45266158 120.52883986 11.88513303 119.99802282 19.72265625 118.46875 C28.88582999 115.22014891 32.85197526 108.29604948 37 100 C37.66 100 38.32 100 39 100 C38.34 105.94 37.68 111.88 37 118 C18.08504511 124.51515113 -2.25430507 126.0211674 -20.9609375 117.6796875 C-30.51410895 112.42974643 -35.7146714 105.25220634 -39 95 C-39.22558594 94.35417969 -39.45117188 93.70835938 -39.68359375 93.04296875 C-43.26994666 81.2945713 -40.94117172 69.79871116 -35.52734375 59.0859375 C-28.94999707 47.79715809 -18.36866699 40.33253363 -5.875 36.6875 C-4.92625 36.460625 -3.9775 36.23375 -3 36 C-3.56589844 35.76925781 -4.13179687 35.53851563 -4.71484375 35.30078125 C-5.44832031 34.97464844 -6.18179688 34.64851563 -6.9375 34.3125 C-7.66839844 33.99925781 -8.39929688 33.68601563 -9.15234375 33.36328125 C-11 32 -11 32 -11.75390625 29.7109375 C-12.01050852 26.88423944 -12.0606183 24.15019431 -12 21.3125 C-11.64218287 11.91036698 -11.64218287 11.91036698 -14 3 C-13.67 2.34 -13.34 1.68 -13 1 C-12.01 1.33 -11.02 1.66 -10 2 C-10.0825 2.886875 -10.165 3.77375 -10.25 4.6875 C-10.27451693 10.63285659 -8.17360223 16.52633014 -6 22 C-5.34 22.33 -4.68 22.66 -4 23 C-2.58378433 15.34640892 -1.2600293 7.68081691 0 0 Z " fill="#B6985D" transform="translate(150,26)"/>
<path d="M0 0 C12.21 0 24.42 0 37 0 C37 3 37 3 34.5625 5.5625 C33.716875 6.366875 32.87125 7.17125 32 8 C30.50748921 10.98502158 30.85269681 13.73527937 30.82421875 17.0625 C30.8009901 18.51433693 30.77687161 19.96615984 30.75195312 21.41796875 C30.71708941 23.69751953 30.68763946 25.97656489 30.67407227 28.25634766 C30.61659861 36.33979605 30.44468078 43.47584412 26.93188477 50.93432617 C22.18872268 61.44831476 24.39243144 76.45861849 28 87 C28.34119873 87.53616943 28.68239746 88.07233887 29.03393555 88.62475586 C30.47671213 92.17208298 30.29839656 95.71960927 30.30859375 99.4921875 C30.33375486 101.18359718 30.35915287 102.87500335 30.38476562 104.56640625 C30.41348136 107.22150758 30.43751095 109.87654796 30.45629883 112.53173828 C30.47802581 115.1022072 30.51746933 117.67196623 30.55859375 120.2421875 C30.55870956 121.02987518 30.55882538 121.81756287 30.5589447 122.62911987 C30.64513352 127.458622 31.31279473 130.82710498 34 135 C34.99 135.66 35.98 136.32 37 137 C37 137.99 37 138.98 37 140 C24.79 140 12.58 140 0 140 C0 139.01 0 138.02 0 137 C0.78375 136.4225 1.5675 135.845 2.375 135.25 C6.52129974 131.6960288 7.0021615 127.07877563 7.4140625 121.81640625 C7.49245209 120.39886108 7.56271225 118.98084391 7.625 117.5625 C7.66367188 116.83095703 7.70234375 116.09941406 7.7421875 115.34570312 C7.83533984 113.56416468 7.91870286 111.78211878 8 110 C11.3 108.68 14.6 107.36 18 106 C18.33970765 103.50072231 18.67188032 101.00080405 19 98.5 C19.09539062 97.80390625 19.19078125 97.1078125 19.2890625 96.390625 C19.9161622 91.55299871 20.08789528 86.87818804 20 82 C17.03 81.67 14.06 81.34 11 81 C10.34 83.64 9.68 86.28 9 89 C8.67 89 8.34 89 8 89 C8 74.48 8 59.96 8 45 C8.66 45.99 9.32 46.98 10 48 C12.97 48 15.94 48 19 48 C19 40.41 19 32.82 19 25 C15.3441622 23.53766488 11.7372512 22.21677946 8 21 C7.89042969 20.19175781 7.78085938 19.38351563 7.66796875 18.55078125 C7.50941406 17.48214844 7.35085937 16.41351563 7.1875 15.3125 C7.03667969 14.25675781 6.88585937 13.20101562 6.73046875 12.11328125 C5.96397335 8.84645325 4.99857938 6.68574227 3 4 C2.01 3.67 1.02 3.34 0 3 C0 2.01 0 1.02 0 0 Z " fill="#B6975D" transform="translate(81,40)"/>
<path d="M0 0 C0.91499268 -0.00056396 1.82998535 -0.00112793 2.77270508 -0.00170898 C11.60137143 0.138892 21.0605491 1.37402455 29.0625 5.375 C29.0625 10.985 29.0625 16.595 29.0625 22.375 C26.7366642 20.0491642 25.26482395 18.23344252 23.5 15.5625 C18.62492766 8.97751423 11.09608714 4.78440125 3.0625 3.375 C-7.09749376 2.50998505 -16.15251935 4.08371036 -24.1875 10.64453125 C-30.33475124 16.72317478 -33.98157159 25.01427356 -34.3359375 33.6171875 C-34.34381556 35.49479139 -34.33574249 37.37252344 -34.3125 39.25 C-34.32410156 40.17941406 -34.33570313 41.10882813 -34.34765625 42.06640625 C-34.29214149 55.33443357 -29.5760225 66.52534207 -20.4609375 76.09765625 C-12.40346458 83.36933847 -3.60147362 84.36054783 6.86328125 83.859375 C13.87262076 83.24487457 17.99710073 80.44039927 22.875 75.5625 C25.35807621 71.94430323 27.21156929 68.35107337 29.0625 64.375 C29.7225 64.375 30.3825 64.375 31.0625 64.375 C31.12504781 67.377295 31.11362584 70.37251893 31.0625 73.375 C31.05863281 74.12523437 31.05476563 74.87546875 31.05078125 75.6484375 C30.9375 77.75 30.9375 77.75 30.0625 81.375 C27.8125 83.1875 27.8125 83.1875 24.0625 84.375 C23.25554687 84.65085937 22.44859375 84.92671875 21.6171875 85.2109375 C5.42677119 89.91695184 -13.88434032 89.55811438 -28.9453125 81.83203125 C-38.63402166 76.18674338 -44.37844056 68.2918327 -47.47021484 57.51879883 C-50.00983377 45.86760038 -48.86508535 32.32729912 -42.58203125 22.1875 C-41.13382904 20.13749794 -39.5911049 18.26196033 -37.9375 16.375 C-37.45925781 15.78074219 -36.98101562 15.18648437 -36.48828125 14.57421875 C-27.47966712 4.34025156 -13.22900714 -0.02060027 0 0 Z " fill="#B5975E" transform="translate(65.9375,61.625)"/>
<path d="M0 0 C13.4657127 -0.29740224 24.32361649 -0.52179627 34.99609375 8.73046875 C39.71735423 13.48854218 42.72053905 18.83912691 45.625 24.8125 C45.99238281 25.5540332 46.35976562 26.29556641 46.73828125 27.05957031 C49.17302763 32.35009135 49.17302763 32.35009135 48.359375 35.40625 C45.56760792 38.67935623 42.13923415 40.18125039 38 41 C36.41788427 41.06548492 34.83329919 41.08578381 33.25 41.0625 C32.45078125 41.05347656 31.6515625 41.04445312 30.828125 41.03515625 C30.22484375 41.02355469 29.6215625 41.01195312 29 41 C28.72849121 40.35039307 28.45698242 39.70078613 28.17724609 39.03149414 C26.91946539 36.03767798 25.64734965 33.05015196 24.375 30.0625 C23.94832031 29.04091797 23.52164063 28.01933594 23.08203125 26.96679688 C17.68814451 13.91611258 17.68814451 13.91611258 6.90234375 5.640625 C4.62027881 4.87212675 2.39110703 4.29888838 0 4 C0 2.68 0 1.36 0 0 Z " fill="#B99A5D" transform="translate(127,101)"/>
<path d="M0 0 C0.33 1.32 0.66 2.64 1 4 C6.94 3.505 6.94 3.505 13 3 C13.33 2.01 13.66 1.02 14 0 C14.99 0.33 15.98 0.66 17 1 C17 1.99 17 2.98 17 4 C21.29 4 25.58 4 30 4 C29.67 5.32 29.34 6.64 29 8 C28.01 8 27.02 8 26 8 C26 9.65 26 11.3 26 13 C25.01 13 24.02 13 23 13 C22.75507813 13.55429687 22.51015625 14.10859375 22.2578125 14.6796875 C20.22974721 18.4209011 17.39660963 21.4994397 14.6796875 24.7578125 C12.80014876 26.79985101 12.80014876 26.79985101 13 29 C14.134375 29.474375 15.26875 29.94875 16.4375 30.4375 C20 32 20 32 21 33 C21.07319621 35.69654854 21.09242537 38.36691458 21.0625 41.0625 C21.05798828 41.82111328 21.05347656 42.57972656 21.04882812 43.36132812 C21.0370068 45.24091871 21.01907078 47.12046899 21 49 C20.34 49 19.68 49 19 49 C17.95703125 47.4609375 17.95703125 47.4609375 16.8125 45.375 C13.27320923 39.53827487 9.31894444 35.34395406 2.5625 33.625 C1.386875 33.41875 0.21125 33.2125 -1 33 C2.08809695 31.23537317 3.23312136 31 7 31 C6.38125 30.566875 5.7625 30.13375 5.125 29.6875 C3 28 3 28 1 25 C1.375 21.8125 1.375 21.8125 2 19 C1.01 19 0.02 19 -1 19 C-1.09507063 12.56688704 -1.15316726 6.34241995 0 0 Z " fill="#BB9C5E" transform="translate(166,35)"/>
<path d="M0 0 C0.99 0 1.98 0 3 0 C2.98839844 1.00160156 2.97679687 2.00320312 2.96484375 3.03515625 C2.95545602 4.37760228 2.94635688 5.72005036 2.9375 7.0625 C2.92589844 8.37347656 2.91429687 9.68445313 2.90234375 11.03515625 C2.67587631 17.44157728 2.67587631 17.44157728 5 23 C8.96 15.74 12.92 8.48 17 1 C17.98876773 4.95507091 17.9191527 6.26075371 17.0625 10.0625 C15.91718338 15.76602305 15.79812565 21.20171999 16 27 C16.66 26.67 17.32 26.34 18 26 C19 29 19 29 18.375 31.5 C18.189375 32.7375 18.189375 32.7375 18 34 C19.22809091 35.64555699 19.22809091 35.64555699 21 37 C22.01690014 38.32048926 23.0190586 39.6525833 24 41 C16.32437027 41.81271374 9.85900308 40.67317639 2.625 38.25 C1.86461426 37.99782715 1.10422852 37.7456543 0.32080078 37.48583984 C-4.20860445 35.88834005 -8.41780982 34.28320423 -12 31 C-12.44273366 28.15520075 -12.53183352 26.1737088 -12.3125 23.375 C-12.25408828 21.94285538 -12.19939798 20.51055412 -12.1484375 19.078125 C-12.10154785 18.03495117 -12.10154785 18.03495117 -12.05371094 16.97070312 C-11.92916543 12.40101539 -11.92750941 7.14498117 -14 3 C-13.67 2.34 -13.34 1.68 -13 1 C-12.01 1.33 -11.02 1.66 -10 2 C-10.0825 2.886875 -10.165 3.77375 -10.25 4.6875 C-10.27451693 10.63285659 -8.17360223 16.52633014 -6 22 C-5.34 22.33 -4.68 22.66 -4 23 C-2.58378433 15.34640892 -1.2600293 7.68081691 0 0 Z " fill="#F1D78F" transform="translate(150,26)"/>
<path d="M0 0 C0.99560547 1.76245117 0.99560547 1.76245117 1.8671875 4.04296875 C2.19589844 4.86990234 2.52460938 5.69683594 2.86328125 6.54882812 C3.53023025 8.28830323 4.19690339 10.02788414 4.86328125 11.76757812 C6.94353616 17.00059291 8.96035895 21.02397534 13 25 C16.67924984 25.96838142 16.67924984 25.96838142 20 26 C20 26.99 20 27.98 20 29 C16.15831726 30.92084137 11.47623811 30.2718631 7.25 30.3125 C6.26 30.34150391 5.27 30.37050781 4.25 30.40039062 C-1.68778137 30.45198899 -5.38487772 30.1361945 -10 26 C-14.56422066 20.85468643 -22 9.91845209 -22 3 C-18.89857059 2.29973482 -15.7935359 1.61701544 -12.6875 0.9375 C-11.80642578 0.73833984 -10.92535156 0.53917969 -10.01757812 0.33398438 C-9.17001953 0.15029297 -8.32246094 -0.03339844 -7.44921875 -0.22265625 C-6.27879028 -0.48187866 -6.27879028 -0.48187866 -5.0847168 -0.74633789 C-3 -1 -3 -1 0 0 Z " fill="#B7995E" transform="translate(183,151)"/>
<path d="M0 0 C0 3.73864842 -0.85962891 4.23642706 -3.375 6.875 C-6.02703781 9.77884746 -7.9147864 12.14146274 -9 16 C-7.865625 16.474375 -6.73125 16.94875 -5.5625 17.4375 C-2 19 -2 19 -1 20 C-0.92680379 22.69654854 -0.90757463 25.36691458 -0.9375 28.0625 C-0.94201172 28.82111328 -0.94652344 29.57972656 -0.95117188 30.36132812 C-0.9629932 32.24091871 -0.98092922 34.12046899 -1 36 C-1.66 36 -2.32 36 -3 36 C-4.04296875 34.4609375 -4.04296875 34.4609375 -5.1875 32.375 C-8.72679077 26.53827487 -12.68105556 22.34395406 -19.4375 20.625 C-20.613125 20.41875 -21.78875 20.2125 -23 20 C-19.91190305 18.23537317 -18.76687864 18 -15 18 C-16.32 17.01 -17.64 16.02 -19 15 C-18.34 15 -17.68 15 -17 15 C-17 14.01 -17 13.02 -17 12 C-15.576875 11.2575 -15.576875 11.2575 -14.125 10.5 C-8.98351287 7.58613871 -4.53658799 3.76071278 0 0 Z " fill="#B19561" transform="translate(188,48)"/>
<path d="M0 0 C0.99 0 1.98 0 3 0 C3.05791844 3.12492251 3.09356746 6.24970766 3.125 9.375 C3.14175781 10.26445313 3.15851563 11.15390625 3.17578125 12.0703125 C3.18222656 12.92109375 3.18867188 13.771875 3.1953125 14.6484375 C3.20578613 15.43395996 3.21625977 16.21948242 3.22705078 17.02880859 C3 19 3 19 1 21 C0.67 21 0.34 21 0 21 C-0.28875 22.093125 -0.5775 23.18625 -0.875 24.3125 C-2 28 -2 28 -4 31 C-3.34 31.33 -2.68 31.66 -2 32 C-2.33 33.32 -2.66 34.64 -3 36 C-4.32226452 35.46085342 -5.63271056 34.89266121 -6.9375 34.3125 C-7.66839844 33.99925781 -8.39929688 33.68601563 -9.15234375 33.36328125 C-11 32 -11 32 -11.75390625 29.7109375 C-12.01050852 26.88423944 -12.0606183 24.15019431 -12 21.3125 C-11.64218287 11.91036698 -11.64218287 11.91036698 -14 3 C-13.67 2.34 -13.34 1.68 -13 1 C-12.01 1.33 -11.02 1.66 -10 2 C-10.0825 2.886875 -10.165 3.77375 -10.25 4.6875 C-10.27451693 10.63285659 -8.17360223 16.52633014 -6 22 C-5.34 22.33 -4.68 22.66 -4 23 C-2.58378433 15.34640892 -1.2600293 7.68081691 0 0 Z " fill="#C9A057" transform="translate(150,26)"/>
<path d="M0 0 C2.203125 1.609375 2.203125 1.609375 4 4 C4.390625 7.234375 4.390625 7.234375 4.25 10.75 C4.21390625 11.92046875 4.1778125 13.0909375 4.140625 14.296875 C4.07101563 15.63492188 4.07101563 15.63492188 4 17 C2.68 17 1.36 17 0 17 C-1.155 17.0825 -2.31 17.165 -3.5 17.25 C-7 17 -7 17 -9.4375 15.5625 C-11.75587974 11.76035723 -11.77201236 8.33759522 -11 4 C-8.21093968 -0.57405892 -5.10245628 -0.72892233 0 0 Z " fill="#080301" transform="translate(62,192)"/>
<path d="M0 0 C0.66 0 1.32 0 2 0 C2.06254781 3.002295 2.05112584 5.99751893 2 9 C1.99613281 9.75023437 1.99226563 10.50046875 1.98828125 11.2734375 C1.875 13.375 1.875 13.375 1 17 C-1.25 18.8125 -1.25 18.8125 -5 20 C-6.21042969 20.41378906 -6.21042969 20.41378906 -7.4453125 20.8359375 C-18.6919866 24.10497077 -30.40587271 23.27642191 -42 23 C-41.38125 22.71125 -40.7625 22.4225 -40.125 22.125 C-37.86674235 21.06279958 -37.86674235 21.06279958 -36 19 C-33.12535552 18.98528841 -30.30563766 19.06076634 -27.4375 19.1875 C-20.15825088 19.34401211 -14.70132829 19.00185977 -9 14 C-4.8089954 9.8089954 -2.47245463 5.31119883 0 0 Z " fill="#B2965E" transform="translate(95,126)"/>
<path d="M0 0 C6.8359375 -0.1953125 6.8359375 -0.1953125 9 0 C11 2 11 2 11.125 4.5 C11.08375 5.325 11.0425 6.15 11 7 C11 7.66 11 8.32 11 9 C11.33 9.33 11.66 9.66 12 10 C12.25 12.4375 12.25 12.4375 12 15 C7.7975546 17.80163026 4.99895065 17.14489712 0 17 C0 11.39 0 5.78 0 0 Z " fill="#8B7956" transform="translate(179,192)"/>
<path d="M0 0 C0.66 0 1.32 0 2 0 C1.34 5.94 0.68 11.88 0 18 C-7.80017482 20.84476964 -14.70141487 22.67328405 -23 23 C-23 22.67 -23 22.34 -23 22 C-26.3 21.67 -29.6 21.34 -33 21 C-33 20.67 -33 20.34 -33 20 C-32.154375 19.96261719 -31.30875 19.92523438 -30.4375 19.88671875 C-21.56425958 19.37247413 -13.51918078 18.69073817 -7 12 C-4.43028343 8.13288994 -2.07681903 4.15363806 0 0 Z " fill="#B69960" transform="translate(187,126)"/>
<path d="M0 0 C0.99 0.33 1.98 0.66 3 1 C3 1.99 3 2.98 3 4 C7.29 4 11.58 4 16 4 C15.67 5.32 15.34 6.64 15 8 C14.01 8 13.02 8 12 8 C12 9.65 12 11.3 12 13 C11.01 13 10.02 13 9 13 C9 12.01 9 11.02 9 10 C7.05427991 10.87783651 5.11864651 11.7780514 3.1875 12.6875 C1.56908203 13.43580078 1.56908203 13.43580078 -0.08203125 14.19921875 C-3.28873493 16.17818849 -4.34038931 17.67554326 -6 21 C-6.66 21.99 -7.32 22.98 -8 24 C-7.64989059 13.84682713 -7.64989059 13.84682713 -4.9375 10.3125 C-4.298125 9.879375 -3.65875 9.44625 -3 9 C-3 9.99 -3 10.98 -3 12 C-1.18711647 8.14762249 -0.90389996 5.22840198 -1 1 C-0.67 0.67 -0.34 0.34 0 0 Z " fill="#B49760" transform="translate(180,35)"/>
<path d="M0 0 C8 0 8 0 11 2 C11.27390571 5.0814392 11.09132968 7.61641535 10.375 10.625 C9.92732587 13.46026949 10.49668552 14.61238289 12 17 C11.01 17 10.02 17 9 17 C8.566875 16.030625 8.13375 15.06125 7.6875 14.0625 C6.2985139 10.72268235 6.2985139 10.72268235 3 10 C3 12.31 3 14.62 3 17 C2.01 17 1.02 17 0 17 C0 11.39 0 5.78 0 0 Z " fill="#877551" transform="translate(207,192)"/>
<path d="M0 0 C-5.52650334 6.74080425 -11.69449559 12.8071129 -17.875 18.9375 C-18.95596274 20.01343727 -20.03669383 21.08960731 -21.1171875 22.16601562 C-23.74212641 24.78003292 -26.37018628 27.39088596 -29 30 C-29.6015625 28.12988281 -29.6015625 28.12988281 -30 26 C-28.375 23.921875 -28.375 23.921875 -26 21.75 C-23.01325029 18.92918083 -20.15745132 16.13378694 -17.5 13 C-14.84972522 9.94293886 -12.15708084 6.93817118 -9.375 4 C-8.66085938 3.236875 -7.94671875 2.47375 -7.2109375 1.6875 C-4.58017586 -0.32043115 -3.23162612 -0.36284925 0 0 Z " fill="#A18B60" transform="translate(157,69)"/>
<path d="M0 0 C0.99 0 1.98 0 3 0 C4.65 3.3 6.3 6.6 8 10 C10.48724903 6.68366796 12.23109915 3.70626844 14 0 C14.99 0 15.98 0 17 0 C17 5.61 17 11.22 17 17 C16.34 17 15.68 17 15 17 C14.67 13.7 14.34 10.4 14 7 C12.68 9.64 11.36 12.28 10 15 C7 14 7 14 5.83203125 12.15234375 C4.88802083 10.1015625 3.94401042 8.05078125 3 6 C2.67 9.63 2.34 13.26 2 17 C1.34 17 0.68 17 0 17 C0 11.39 0 5.78 0 0 Z " fill="#988662" transform="translate(159,192)"/>
<path d="M0 0 C0.66 0.99 1.32 1.98 2 3 C1.52949219 3.39832031 1.05898437 3.79664063 0.57421875 4.20703125 C-1.31760553 6.3617393 -1.66060789 7.89091882 -2.1875 10.6875 C-2.34605469 11.49574219 -2.50460938 12.30398437 -2.66796875 13.13671875 C-2.77753906 13.75160156 -2.88710937 14.36648437 -3 15 C-4.65 15 -6.3 15 -8 15 C-8 15.99 -8 16.98 -8 18 C-8.66 18 -9.32 18 -10 18 C-10 16.68 -10 15.36 -10 14 C-12.97 13.505 -12.97 13.505 -16 13 C-14 10 -14 10 -10 9 C-9.34 6.36 -8.68 3.72 -8 1 C-7.01 1 -6.02 1 -5 1 C-4.34 2.32 -3.68 3.64 -3 5 C-2.01 3.35 -1.02 1.7 0 0 Z " fill="#E5C274" transform="translate(158,44)"/>
<path d="M0 0 C0.99 0 1.98 0 3 0 C4.98 5.61 6.96 11.22 9 17 C8.01 17 7.02 17 6 17 C5.67 16.01 5.34 15.02 5 14 C2.69 14 0.38 14 -2 14 C-2.33 14.99 -2.66 15.98 -3 17 C-3.99 16.67 -4.98 16.34 -6 16 C-4.02 10.72 -2.04 5.44 0 0 Z " fill="#978563" transform="translate(148,192)"/>
<path d="M0 0 C0.66 0 1.32 0 2 0 C3.00419637 2.4566947 4.00350501 4.91518353 5 7.375 C5.28617188 8.07367188 5.57234375 8.77234375 5.8671875 9.4921875 C8 14.7734375 8 14.7734375 8 17 C7.01 16.67 6.02 16.34 5 16 C5 15.01 5 14.02 5 13 C2.36 13.33 -0.28 13.66 -3 14 C-3.33 14.99 -3.66 15.98 -4 17 C-4.66 17 -5.32 17 -6 17 C-4.89061647 10.69403048 -3.06802099 5.62470514 0 0 Z " fill="#948362" transform="translate(75,192)"/>
<path d="M0 0 C2.4375 2 2.4375 2 4 4 C3.01 4.33 2.02 4.66 1 5 C0.67 4.34 0.34 3.68 0 3 C-2.91652174 2.83318891 -2.91652174 2.83318891 -6 3 C-8.38785276 4.94234089 -8.38785276 4.94234089 -8.1875 8.5 C-8.24131237 11.84964703 -8.24131237 11.84964703 -7 14 C-4.69 14 -2.38 14 0 14 C0.66 12.68 1.32 11.36 2 10 C0.35 10 -1.3 10 -3 10 C-3 9.34 -3 8.68 -3 8 C-0.69 8 1.62 8 4 8 C4 10.97 4 13.94 4 17 C2.68 17 1.36 17 0 17 C-1.155 17.0825 -2.31 17.165 -3.5 17.25 C-7 17 -7 17 -9.4375 15.5625 C-11.75587974 11.76035723 -11.77201236 8.33759522 -11 4 C-8.21093968 -0.57405892 -5.10245628 -0.72892233 0 0 Z " fill="#9A8762" transform="translate(62,192)"/>
<path d="M0 0 C0.495 0.99 0.495 0.99 1 2 C-0.03898437 2.08636719 -1.07796875 2.17273438 -2.1484375 2.26171875 C-13.03083124 3.30410864 -21.62201057 5.45980951 -30 13 C-31.32 12.01 -32.64 11.02 -34 10 C-23.07216117 2.74700963 -13.20290987 -0.84273893 0 0 Z " fill="#AA9264" transform="translate(68,62)"/>
<path d="M0 0 C-0.34293076 2.94129073 -0.95750893 3.9582958 -3.109375 6.0703125 C-3.98078125 6.74835937 -4.8521875 7.42640625 -5.75 8.125 C-6.61109375 8.80820312 -7.4721875 9.49140625 -8.359375 10.1953125 C-10.86110768 11.90507655 -13.1494888 13.00539717 -16 14 C-15.80599339 9.82885794 -15.31772899 8.31772899 -12.3125 5.3125 C-8.50550952 2.47555998 -4.84954898 0 0 0 Z " fill="#0F0802" transform="translate(189,45)"/>
<path d="M0 0 C0 0.99 0 1.98 0 3 C-0.99 3.33 -1.98 3.66 -3 4 C-2.01 4.66 -1.02 5.32 0 6 C-4.00091404 6.74984705 -7.76749517 7.1195296 -11.8359375 7.09765625 C-12.89941406 7.09443359 -13.96289062 7.09121094 -15.05859375 7.08789062 C-16.15300781 7.07951172 -17.24742188 7.07113281 -18.375 7.0625 C-19.49261719 7.05798828 -20.61023438 7.05347656 -21.76171875 7.04882812 C-24.50786804 7.03709244 -27.25390586 7.02067363 -30 7 C-29.38125 6.71125 -28.7625 6.4225 -28.125 6.125 C-25.86674235 5.06279958 -25.86674235 5.06279958 -24 3 C-20.25681336 2.91424971 -16.5666264 3.00622484 -12.828125 3.16601562 C-7.73419941 3.28749905 -4.468923 2.76064114 0 0 Z " fill="#9F895E" transform="translate(83,142)"/>
<path d="M0 0 C0.66 0.66 1.32 1.32 2 2 C2.66 1.67 3.32 1.34 4 1 C5 4 5 4 4.375 6.5 C4.25125 7.325 4.1275 8.15 4 9 C5.22809091 10.64555699 5.22809091 10.64555699 7 12 C8.01690014 13.32048926 9.0190586 14.6525833 10 16 C8.08364783 16.05423638 6.16685075 16.09289963 4.25 16.125 C3.18265625 16.14820312 2.1153125 16.17140625 1.015625 16.1953125 C-1.92470106 16.00487687 -3.52361878 15.52670104 -6 14 C-4.68 14 -3.36 14 -2 14 C-2 13.34 -2 12.68 -2 12 C-1.34 11.34 -0.68 10.68 0 10 C0.24287489 7.55987051 0.24287489 7.55987051 0.125 4.875 C0.09792969 3.50988281 0.09792969 3.50988281 0.0703125 2.1171875 C0.04710937 1.41851562 0.02390625 0.71984375 0 0 Z " fill="#DDB970" transform="translate(164,51)"/>
<path d="M0 0 C3.18352727 0.54187698 4.66691062 1.22941062 6.9375 3.5 C6.9375 4.16 6.9375 4.82 6.9375 5.5 C6.40125 5.17 5.865 4.84 5.3125 4.5 C2.32108852 3.24045833 0.15317216 3.15047042 -3.0625 3.5 C-5.45048682 6.40585687 -5.45048682 6.40585687 -4.75 10.125 C-4.42136877 13.32504312 -4.42136877 13.32504312 -3.0625 14.5 C0.88586905 14.7632246 3.54129269 14.58997373 6.9375 12.5 C5.0625 16.375 5.0625 16.375 3.9375 17.5 C1.00942466 17.78800741 -1.21247212 17.98146102 -4.0625 17.5 C-7.31235922 14.81886615 -7.95825014 13.14866582 -8.625 9 C-8.0625 5.5 -8.0625 5.5 -5.9375 2.5625 C-3.0625 0.5 -3.0625 0.5 0 0 Z " fill="#9C8966" transform="translate(117.0625,191.5)"/>
<path d="M0 0 C0.66 0 1.32 0 2 0 C2.33 1.98 2.66 3.96 3 6 C4.65 4.02 6.3 2.04 8 0 C8.99 0.33 9.98 0.66 11 1 C9.35 2.65 7.7 4.3 6 6 C7.25756667 9.48249231 8.7731892 12.06465849 11 15 C11 15.66 11 16.32 11 17 C7.2047869 15.50902342 5.38957269 13.24299151 3 10 C2.67 12.31 2.34 14.62 2 17 C1.34 17 0.68 17 0 17 C0 11.39 0 5.78 0 0 Z " fill="#A08C65" transform="translate(32,192)"/>
<path d="M0 0 C0.99 0.33 1.98 0.66 3 1 C2.9175 1.886875 2.835 2.77375 2.75 3.6875 C2.72546097 9.65048501 4.88760622 15.48773155 7 21 C7.66 21.66 8.32 22.32 9 23 C8.34 23 7.68 23 7 23 C6.67 23.99 6.34 24.98 6 26 C4.68 26 3.36 26 2 26 C1.94465088 25.34402832 1.88930176 24.68805664 1.83227539 24.01220703 C1.57990601 21.04942727 1.32128185 18.08722626 1.0625 15.125 C0.97548828 14.09246094 0.88847656 13.05992188 0.79882812 11.99609375 C0.71181641 11.00996094 0.62480469 10.02382813 0.53515625 9.0078125 C0.456604 8.09660645 0.37805176 7.18540039 0.29711914 6.24658203 C0.12004581 3.968356 0.12004581 3.968356 -1 2 C-0.67 1.34 -0.34 0.68 0 0 Z " fill="#A17C43" transform="translate(137,27)"/>
<path d="M0 0 C0.66 0 1.32 0 2 0 C2 2.64 2 5.28 2 8 C4.97 8 7.94 8 11 8 C11 5.36 11 2.72 11 0 C11.66 0 12.32 0 13 0 C13 5.61 13 11.22 13 17 C12.34 17 11.68 17 11 17 C11 14.36 11 11.72 11 9 C8.03 9 5.06 9 2 9 C2 11.64 2 14.28 2 17 C1.34 17 0.68 17 0 17 C0 11.39 0 5.78 0 0 Z " fill="#A5926F" transform="translate(127,192)"/>
<path d="M0 0 C3.3 0 6.6 0 10 0 C10 0.66 10 1.32 10 2 C7.36 2 4.72 2 2 2 C2 3.98 2 5.96 2 8 C4.64 8 7.28 8 10 8 C10 8.33 10 8.66 10 9 C7.36 9 4.72 9 2 9 C2 10.98 2 12.96 2 15 C4.97 15 7.94 15 11 15 C11 15.66 11 16.32 11 17 C7.37 17 3.74 17 0 17 C0 11.39 0 5.78 0 0 Z " fill="#A08D68" transform="translate(194,192)"/>
<path d="M0 0 C0.99 0 1.98 0 3 0 C3.05791844 3.12492251 3.09356746 6.24970766 3.125 9.375 C3.14175781 10.26445313 3.15851563 11.15390625 3.17578125 12.0703125 C3.18222656 12.92109375 3.18867188 13.771875 3.1953125 14.6484375 C3.20578613 15.43395996 3.21625977 16.21948242 3.22705078 17.02880859 C3 19 3 19 1 21 C0.67 18.69 0.34 16.38 0 14 C-0.12117187 14.63808594 -0.24234375 15.27617188 -0.3671875 15.93359375 C-0.53476563 16.75988281 -0.70234375 17.58617188 -0.875 18.4375 C-1.03742188 19.26121094 -1.19984375 20.08492187 -1.3671875 20.93359375 C-1.57601562 21.61550781 -1.78484375 22.29742187 -2 23 C-2.66 23.33 -3.32 23.66 -4 24 C-3.26990593 18.66251619 -2.38713289 13.36499559 -1.4375 8.0625 C-1.29892578 7.28326172 -1.16035156 6.50402344 -1.01757812 5.70117188 C-0.67943843 3.8005936 -0.3398683 1.90026992 0 0 Z " fill="#B79A62" transform="translate(150,26)"/>
<path d="M0 0 C-1.32120828 2.93230193 -2.74638197 4.98664899 -5.0390625 7.234375 C-5.90917969 8.09482422 -5.90917969 8.09482422 -6.796875 8.97265625 C-7.40015625 9.55917969 -8.0034375 10.14570312 -8.625 10.75 C-9.23601562 11.35199219 -9.84703125 11.95398438 -10.4765625 12.57421875 C-11.97988624 14.05405305 -13.48934856 15.52764676 -15 17 C-15.61254883 15.14086914 -15.61254883 15.14086914 -16 13 C-14.19921875 10.74609375 -14.19921875 10.74609375 -11.6875 8.4375 C-9.06657653 5.99761363 -6.99385547 3.99078321 -5 1 C-2 0 -2 0 0 0 Z " fill="#AE9669" transform="translate(143,82)"/>
<path d="M0 0 C0 3.7187416 -0.82884239 4.2319358 -3.3125 6.875 C-5.44417997 9.20397832 -7.12567494 11.21095436 -8.75 13.9375 C-10 16 -10 16 -13 17 C-13.8121185 14.7260682 -14.14805772 13.44233393 -13.37109375 11.12109375 C-11.51465278 8.2491637 -9.23693636 6.75787103 -6.4375 4.8125 C-3.07256621 2.58647533 -3.07256621 2.58647533 0 0 Z " fill="#93713E" transform="translate(188,48)"/>
<path d="M0 0 C0 3 0 3 -1 5 C14.84 5.495 14.84 5.495 31 6 C31.33 5.34 31.66 4.68 32 4 C32 4.99 32 5.98 32 7 C19.79 7 7.58 7 -5 7 C-5 6.01 -5 5.02 -5 4 C-2.5 1.8125 -2.5 1.8125 0 0 Z " fill="#B0986A" transform="translate(86,173)"/>
<path d="M0 0 C-0.79664063 0.24234375 -1.59328125 0.4846875 -2.4140625 0.734375 C-8.22713696 2.57306035 -13.14583763 4.29550766 -18 8 C-18.99 8.495 -18.99 8.495 -20 9 C-20 7.35 -20 5.7 -20 4 C-5.7 -3.8 -5.7 -3.8 0 0 Z " fill="#A38E63" transform="translate(152,64)"/>
<path d="M0 0 C0.66 0 1.32 0 2 0 C2 4.95 2 9.9 2 15 C4.64 15 7.28 15 10 15 C10 15.66 10 16.32 10 17 C6.7 17 3.4 17 0 17 C0 11.39 0 5.78 0 0 Z " fill="#93856A" transform="translate(85,192)"/>
<path d="M0 0 C0.66 0 1.32 0 2 0 C3.00419637 2.4566947 4.00350501 4.91518353 5 7.375 C5.42925781 8.42300781 5.42925781 8.42300781 5.8671875 9.4921875 C8 14.7734375 8 14.7734375 8 17 C7.01 16.67 6.02 16.34 5 16 C4.67 15.01 4.34 14.02 4 13 C1.03 12.505 1.03 12.505 -2 12 C-2 11.67 -2 11.34 -2 11 C-0.35 11 1.3 11 3 11 C2.34 9.02 1.68 7.04 1 5 C0.34 5 -0.32 5 -1 5 C-0.67 3.35 -0.34 1.7 0 0 Z " fill="#9E8A66" transform="translate(75,192)"/>
<path d="M0 0 C0.66 0.99 1.32 1.98 2 3 C-0.63172778 5.91369861 -2.22909273 7.12012164 -6 8 C-6.99 9.485 -6.99 9.485 -8 11 C-8.66 11 -9.32 11 -10 11 C-9.34 7.7 -8.68 4.4 -8 1 C-7.01 1 -6.02 1 -5 1 C-4.34 2.32 -3.68 3.64 -3 5 C-2.01 3.35 -1.02 1.7 0 0 Z " fill="#D7BB77" transform="translate(158,44)"/>
<path d="M0 0 C0.84046875 0.10892578 1.6809375 0.21785156 2.546875 0.33007812 C4.61664395 0.60055929 6.68365403 0.89200402 8.75 1.1875 C8.42 1.8475 8.09 2.5075 7.75 3.1875 C5.1874282 3.21460123 2.62514635 3.23438771 0.0625 3.25 C-1.0193457 3.26256836 -1.0193457 3.26256836 -2.12304688 3.27539062 C-5.96555382 3.29293632 -9.51639526 3.12274221 -13.25 2.1875 C-9.3662163 -2.04838497 -5.16213931 -0.75415629 0 0 Z " fill="#B29B6E" transform="translate(156.25,145.8125)"/>
<path d="M0 0 C0.96661363 3.12180401 0.98988909 5.52083795 0.5625 8.75 C0.46066406 9.54921875 0.35882813 10.3484375 0.25390625 11.171875 C0.12822266 12.07679687 0.12822266 12.07679687 0 13 C0.66 13.33 1.32 13.66 2 14 C2 14.66 2 15.32 2 16 C0.68 16 -0.64 16 -2 16 C-2 16.66 -2 17.32 -2 18 C-2.66 18 -3.32 18 -4 18 C-4 15.69 -4 13.38 -4 11 C-3.34 11 -2.68 11 -2 11 C-2.04125 10.113125 -2.0825 9.22625 -2.125 8.3125 C-2.00102754 5.02722987 -1.38612096 2.94550705 0 0 Z " fill="#EBCD85" transform="translate(164,47)"/>
<path d="M0 0 C1.32 0.33 2.64 0.66 4 1 C4.8125 3.6875 4.8125 3.6875 5 7 C2.5625 9.875 2.5625 9.875 0 12 C0 8.04 0 4.08 0 0 Z " fill="#1C1209" transform="translate(165,42)"/>
<path d="M0 0 C2.58361518 -0.05407567 5.16609255 -0.093707 7.75 -0.125 C8.84441406 -0.15013672 8.84441406 -0.15013672 9.9609375 -0.17578125 C14.13521398 -0.21372922 16.16970546 0.08485273 20 2 C14.06 2 8.12 2 2 2 C2 2.66 2 3.32 2 4 C1.34 4 0.68 4 0 4 C0 2.68 0 1.36 0 0 Z " fill="#9C8860" transform="translate(127,101)"/>
<path d="M0 0 C2.375 -0.125 2.375 -0.125 5 0 C5.66 0.66 6.32 1.32 7 2 C6.625 4.125 6.625 4.125 6 6 C4.02 6 2.04 6 0 6 C0 4.02 0 2.04 0 0 Z " fill="#0F0701" transform="translate(182,201)"/>
<path d="M0 0 C0.66 0 1.32 0 2 0 C2.05422947 1.4370809 2.09289723 2.87475462 2.125 4.3125 C2.14820312 5.11300781 2.17140625 5.91351563 2.1953125 6.73828125 C2 9 2 9 0 12 C-0.33 11.01 -0.66 10.02 -1 9 C-1.99 9.66 -2.98 10.32 -4 11 C-3.39301257 6.87248551 -1.96189209 3.6678852 0 0 Z " fill="#A18A5F" transform="translate(95,126)"/>
<path d="M0 0 C0.66 0.66 1.32 1.32 2 2 C2.66 1.67 3.32 1.34 4 1 C5.24386556 4.73159669 4.77811718 7.18015204 4 11 C3.01 11.495 3.01 11.495 2 12 C0 10 0 10 -0.1953125 7.6171875 C-0.17210937 6.71226563 -0.14890625 5.80734375 -0.125 4.875 C-0.10695312 3.96492188 -0.08890625 3.05484375 -0.0703125 2.1171875 C-0.04710937 1.41851562 -0.02390625 0.71984375 0 0 Z " fill="#D8B364" transform="translate(164,51)"/>
<path d="M0 0 C0.98120464 3.05263664 0.98120464 4.94736336 0 8 C0.66 8.33 1.32 8.66 2 9 C1.01 9 0.02 9 -1 9 C-1 9.66 -1 10.32 -1 11 C-2.32 10.34 -3.64 9.68 -5 9 C-4.34 6.69 -3.68 4.38 -3 2 C-2.34 2 -1.68 2 -1 2 C-0.67 1.34 -0.34 0.68 0 0 Z " fill="#C7A054" transform="translate(172,51)"/>
<path d="M0 0 C1.66611905 -0.042721 3.33382885 -0.04063832 5 0 C6 1 6 1 6.0625 3.5625 C6.041875 4.366875 6.02125 5.17125 6 6 C4.02 6 2.04 6 0 6 C0 4.02 0 2.04 0 0 Z " fill="#070301" transform="translate(210,194)"/>
<path d="M0 0 C0.33 1.32 0.66 2.64 1 4 C4.96 4 8.92 4 13 4 C12.67 4.66 12.34 5.32 12 6 C9.03 6 6.06 6 3 6 C3 6.66 3 7.32 3 8 C2.01 7.67 1.02 7.34 0 7 C0 4.69 0 2.38 0 0 Z " fill="#89754C" transform="translate(166,35)"/>
<path d="M0 0 C0.66 0 1.32 0 2 0 C2 5.28 2 10.56 2 16 C1.34 16 0.68 16 0 16 C-0.19441368 13.7089095 -0.38033135 11.41709663 -0.5625 9.125 C-0.71912109 7.21074219 -0.71912109 7.21074219 -0.87890625 5.2578125 C-1 2 -1 2 0 0 Z " fill="#B49C6C" transform="translate(174,193)"/>
<path d="M0 0 C1.65 0.33 3.3 0.66 5 1 C4.34 2.98 3.68 4.96 3 7 C2.01 7 1.02 7 0 7 C0 6.34 0 5.68 0 5 C-0.66 4.34 -1.32 3.68 -2 3 C-1.34 2.01 -0.68 1.02 0 0 Z M-4 4 C-2 5 -2 5 -2 5 Z " fill="#E9CA7B" transform="translate(152,51)"/>
<path d="M0 0 C0 0.99 0 1.98 0 3 C0.33 3.99 0.66 4.98 1 6 C1.99 6.33 2.98 6.66 4 7 C2.35 7.66 0.7 8.32 -1 9 C-2.65 7.68 -4.3 6.36 -6 5 C-5.34 5 -4.68 5 -4 5 C-4 4.01 -4 3.02 -4 2 C-2.68 1.34 -1.36 0.68 0 0 Z " fill="#B68E47" transform="translate(175,58)"/>
<path d="M0 0 C0.66 0 1.32 0 2 0 C1.67 3.96 1.34 7.92 1 12 C0.67 12 0.34 12 0 12 C-0.33 10.35 -0.66 8.7 -1 7 C-1.99 8.32 -2.98 9.64 -4 11 C-4.66 10.67 -5.32 10.34 -6 10 C-5.65066406 9.44570312 -5.30132812 8.89140625 -4.94140625 8.3203125 C-4.48636719 7.59585938 -4.03132812 6.87140625 -3.5625 6.125 C-3.11003906 5.40570313 -2.65757812 4.68640625 -2.19140625 3.9453125 C-0.97538499 2.0222453 -0.97538499 2.0222453 0 0 Z " fill="#A28C63" transform="translate(187,126)"/>
<path d="M0 0 C0.99 0.33 1.98 0.66 3 1 C3 1.99 3 2.98 3 4 C7.29 4 11.58 4 16 4 C15.67 4.99 15.34 5.98 15 7 C15 6.34 15 5.68 15 5 C10.05 5 5.1 5 0 5 C-0.33 3.68 -0.66 2.36 -1 1 C-0.67 0.67 -0.34 0.34 0 0 Z " fill="#786644" transform="translate(180,35)"/>
<path d="M0 0 C1.28970458 2.57940917 1.26710399 4.12863207 1 7 C-0.375 9.625 -0.375 9.625 -2 12 C-2.66 12.99 -3.32 13.98 -4 15 C-3.91245449 13.24908981 -3.80426627 11.49920449 -3.6875 9.75 C-3.62949219 8.77546875 -3.57148438 7.8009375 -3.51171875 6.796875 C-2.95363476 3.74658389 -2.03630224 2.29288724 0 0 Z " fill="#B18F4F" transform="translate(176,44)"/>
<path d="M0 0 C1.65 0 3.3 0 5 0 C5.33 1.65 5.66 3.3 6 5 C4.02 5 2.04 5 0 5 C0 3.35 0 1.7 0 0 Z " fill="#060100" transform="translate(182,194)"/>
<path d="M0 0 C2.4377963 -0.05397335 4.87439685 -0.09365616 7.3125 -0.125 C8.00279297 -0.14175781 8.69308594 -0.15851563 9.40429688 -0.17578125 C13.17135396 -0.21217794 14.78431704 -0.14378864 18 2 C15.36 2.33 12.72 2.66 10 3 C10 2.67 10 2.34 10 2 C6.7 1.67 3.4 1.34 0 1 C0 0.67 0 0.34 0 0 Z " fill="#8C774E" transform="translate(154,146)"/>
<path d="M0 0 C0 0.99 0 1.98 0 3 C0.99 3.66 1.98 4.32 3 5 C-1.41062136 6.0257259 -3.92630576 6.03684712 -8 4 C-5.33333333 2.66666667 -2.66666667 1.33333333 0 0 Z " fill="#A28B5D" transform="translate(175,142)"/>
<path d="M0 0 C0.33 0 0.66 0 1 0 C1.42589023 5.53657294 -0.094753 9.89665983 -2 15 C-2.33 14.01 -2.66 13.02 -3 12 C-3.66 11.67 -4.32 11.34 -5 11 C-4.34 10.67 -3.68 10.34 -3 10 C-2.349461 7.91388442 -2.349461 7.91388442 -1.9375 5.5 C-1.09393346 1.09393346 -1.09393346 1.09393346 0 0 Z " fill="#CBA65A" transform="translate(150,39)"/>
<path d="M0 0 C2.5654594 2.5654594 2.54046087 4.47686668 3 8 C1.35 8 -0.3 8 -2 8 C-1.125 2.25 -1.125 2.25 0 0 Z " fill="#1D1209" transform="translate(149,195)"/>
<path d="M0 0 C0.99 0 1.98 0 3 0 C2.67 3.3 2.34 6.6 2 10 C1.01 10 0.02 10 -1 10 C-0.67 6.7 -0.34 3.4 0 0 Z " fill="#978459" transform="translate(150,26)"/>
<path d="M0 0 C1.01444479 2.02888958 2.00158839 4.00415425 2.8125 6.125 C4.42580499 8.67232367 6.18771058 9.1119086 9 10 C9 10.33 9 10.66 9 11 C5.625 10.6875 5.625 10.6875 2 10 C-0.4294516 6.3558226 -0.16179575 4.28758728 0 0 Z " fill="#9E8E6D" transform="translate(51,198)"/>
<path d="M0 0 C0.33 0 0.66 0 1 0 C1 4.95 1 9.9 1 15 C-2 12 -2 12 -3 9 C-2.34 8.67 -1.68 8.34 -1 8 C-0.53476937 6.10466658 -0.53476937 6.10466658 -0.375 3.9375 C-0.25125 2.638125 -0.1275 1.33875 0 0 Z " fill="#B19A6E" transform="translate(94,69)"/>
<path d="M0 0 C2.5654594 2.5654594 2.54046087 4.47686668 3 8 C1.35 8 -0.3 8 -2 8 C-1.34 5.36 -0.68 2.72 0 0 Z " fill="#170C05" transform="translate(75,195)"/>
<path d="M0 0 C0.33 0.66 0.66 1.32 1 2 C0.06553465 4.03144641 -0.93224776 6.03533587 -2 8 C-2.99 8 -3.98 8 -5 8 C-4.64950425 4.75791433 -4.43778819 3.38472296 -1.9375 1.1875 C-1.298125 0.795625 -0.65875 0.40375 0 0 Z " fill="#CCA862" transform="translate(173,46)"/>
<path d="M0 0 C1.39195915 4.17587745 -0.17676781 6.13474776 -2 10 C-2.33 8.68 -2.66 7.36 -3 6 C-3.99 6.495 -3.99 6.495 -5 7 C-3.70700306 4.11562221 -2.34058637 2.12780579 0 0 Z " fill="#CCA966" transform="translate(179,39)"/>
<path d="M0 0 C2.33294775 -0.04241723 4.66702567 -0.04092937 7 0 C8 1 8 1 8.0625 4.0625 C8.041875 5.031875 8.02125 6.00125 8 7 C7.01 7 6.02 7 5 7 C5 5.35 5 3.7 5 2 C3.35 1.67 1.7 1.34 0 1 C0 0.67 0 0.34 0 0 Z " fill="#A28E67" transform="translate(210,193)"/>
<path d="M0 0 C0.99 0.33 1.98 0.66 3 1 C3.07654536 5.51617599 3.10228696 9.59085217 2 14 C1.67 14 1.34 14 1 14 C0.93941406 13.30132812 0.87882813 12.60265625 0.81640625 11.8828125 C0.73261719 10.97273438 0.64882812 10.06265625 0.5625 9.125 C0.48128906 8.22007813 0.40007812 7.31515625 0.31640625 6.3828125 C0.13010715 3.98889139 0.13010715 3.98889139 -1 2 C-0.67 1.34 -0.34 0.68 0 0 Z " fill="#8C7953" transform="translate(137,27)"/>
<path d="M0 0 C0.66 0 1.32 0 2 0 C2 1.65 2 3.3 2 5 C-0.25 6.125 -0.25 6.125 -3 7 C-5.3125 6.125 -5.3125 6.125 -7 5 C-5.02 4.67 -3.04 4.34 -1 4 C-0.67 2.68 -0.34 1.36 0 0 Z " fill="#958667" transform="translate(189,202)"/>
<path d="M0 0 C0.99 0.66 1.98 1.32 3 2 C3 2.66 3 3.32 3 4 C1.68 4 0.36 4 -1 4 C-1 4.66 -1 5.32 -1 6 C-1.66 6 -2.32 6 -3 6 C-3 4.35 -3 2.7 -3 1 C-2.01 0.67 -1.02 0.34 0 0 Z " fill="#E8C576" transform="translate(163,59)"/>
<path d="M0 0 C0 0.99 0 1.98 0 3 C-2.375 3.625 -2.375 3.625 -5 4 C-5.66 3.34 -6.32 2.68 -7 2 C-4 0 -4 0 0 0 Z " fill="#A18C63" transform="translate(203,177)"/>
<path d="M0 0 C0.33 0 0.66 0 1 0 C1.144375 0.9075 1.28875 1.815 1.4375 2.75 C1.86409473 5.21476956 2.35074221 7.58847107 3 10 C2.01 10.66 1.02 11.32 0 12 C0 8.04 0 4.08 0 0 Z " fill="#504020" transform="translate(165,42)"/>
<path d="M0 0 C1.32 0 2.64 0 4 0 C4 1.32 4 2.64 4 4 C2.35 4 0.7 4 -1 4 C-0.67 2.68 -0.34 1.36 0 0 Z " fill="#F7DF9A" transform="translate(154,60)"/>
<path d="M0 0 C0.33 0 0.66 0 1 0 C1 2.97 1 5.94 1 9 C0.01 9.33 -0.98 9.66 -2 10 C-1.34 6.7 -0.68 3.4 0 0 Z " fill="#D7B365" transform="translate(150,45)"/>
<path d="M0 0 C0.96706319 3.00864103 1.27677226 5.05360248 0 8 C-2.0625 9.25 -2.0625 9.25 -4 10 C-2.8905928 6.51329166 -1.73662334 3.22515763 0 0 Z " fill="#BEAE83" transform="translate(167,27)"/>
<path d="M0 0 C0 0.99 0 1.98 0 3 C-4.455 2.01 -4.455 2.01 -9 1 C-4.82091936 -1.08954032 -4.19589427 -1.16552619 0 0 Z " fill="#97753D" transform="translate(174,67)"/>
<path d="M0 0 C2.475 0.495 2.475 0.495 5 1 C4.67 2.32 4.34 3.64 4 5 C2.68 4.34 1.36 3.68 0 3 C0 2.01 0 1.02 0 0 Z " fill="#C6A361" transform="translate(143,57)"/>
<path d="M0 0 C1.9375 0.6875 1.9375 0.6875 4 2 C4.75 4.625 4.75 4.625 5 7 C2.5 5.75 2.5 5.75 0 4 C0 2.68 0 1.36 0 0 Z " fill="#A07A41" transform="translate(138,53)"/>
<path d="M0 0 C0.66 0 1.32 0 2 0 C0.125 3.875 0.125 3.875 -1 5 C-2.99958364 5.04080783 -5.00045254 5.04254356 -7 5 C-6.401875 4.731875 -5.80375 4.46375 -5.1875 4.1875 C-2.95672092 3.1106021 -2.95672092 3.1106021 -1.375 1.375 C-0.694375 0.694375 -0.694375 0.694375 0 0 Z " fill="#9E8D6C" transform="translate(122,204)"/>
<path d="M0 0 C0.391875 0.474375 0.78375 0.94875 1.1875 1.4375 C3.40808374 3.35179633 5.13375709 3.61266988 8 4 C6.25 5.125 6.25 5.125 4 6 C1.30066074 5.07451225 0.28813232 4.57626463 -1 2 C-0.67 1.34 -0.34 0.68 0 0 Z " fill="#8D7C5C" transform="translate(111,203)"/>
<path d="M0 0 C2.97 0.495 2.97 0.495 6 1 C5.67 1.66 5.34 2.32 5 3 C2.69 3 0.38 3 -2 3 C-1.34 2.67 -0.68 2.34 0 2 C0 1.34 0 0.68 0 0 Z " fill="#C49F5A" transform="translate(164,64)"/>
<path d="M0 0 C0 0.33 0 0.66 0 1 C-2.97 1.66 -5.94 2.32 -9 3 C-9 2.01 -9 1.02 -9 0 C-5.52176885 -1.15941038 -3.54104422 -0.70820884 0 0 Z " fill="#998663" transform="translate(58,64)"/>
<path d="M0 0 C0.66 0.66 1.32 1.32 2 2 C2.66 1.67 3.32 1.34 4 1 C3.67 2.65 3.34 4.3 3 6 C2.34 6 1.68 6 1 6 C0.67 6.66 0.34 7.32 0 8 C0 5.36 0 2.72 0 0 Z " fill="#DDBE75" transform="translate(164,51)"/>
</svg>
